<svg id="taiko_sakura_Image" data-name="taiko_sakura Image" xmlns="http://www.w3.org/2000/svg" xmlns:xlink="http://www.w3.org/1999/xlink" viewBox="0 0 565 565"><defs><style>.cls-1{fill:none;}.cls-2{clip-path:url(#clip-path);}.cls-3{fill:#030303;}.cls-4{fill:#332f30;}.cls-5{fill:#020203;}.cls-6{fill:#9d7e7e;}.cls-7{fill:#50464b;}.cls-8{fill:#060405;}.cls-9{fill:#484041;}.cls-10{fill:#27262f;}.cls-11{fill:#292830;}.cls-12{fill:#6b4e4a;}.cls-13{fill:#3e2a2c;}.cls-14{fill:#5d4946;}.cls-15{fill:#513d3d;}.cls-16{fill:#030304;}.cls-17{fill:#090807;}.cls-18{fill:#946d70;}.cls-19{fill:#665047;}.cls-20{fill:#040404;}.cls-21{fill:#8e6d6a;}.cls-22{fill:#302c32;}.cls-23{fill:#584041;}.cls-24{fill:#181216;}.cls-25{fill:#785859;}.cls-26{fill:#413335;}.cls-27{fill:#322e33;}.cls-28{fill:#1f1d23;}.cls-29{fill:#201e22;}.cls-30{fill:#b8a787;}.cls-31{fill:#2b2226;}.cls-32{fill:#b39a9a;}.cls-33{fill:#a8737c;}.cls-34{fill:#483a41;}.cls-35{fill:#8e706d;}.cls-36{fill:#7e5a5e;}.cls-37{fill:#4e3c3b;}.cls-38{fill:#19181f;}.cls-39{fill:#7b646a;}.cls-40{fill:#a9a9a5;}.cls-41{fill:#53393f;}.cls-42{fill:#1f1e24;}.cls-43{fill:#221f1f;}.cls-44{fill:#19181e;}.cls-45{fill:#44393c;}.cls-46{fill:#c4c1c2;}.cls-47{fill:#765f61;}.cls-48{fill:#7b656d;}.cls-49{fill:#604b3b;}.cls-50{fill:#b9a8ad;}.cls-51{fill:#1f2024;}.cls-52{fill:#7b6162;}.cls-53{fill:#614e47;}.cls-54{fill:#762d47;}.cls-55{fill:#413d3d;}.cls-56{fill:#baaa94;}.cls-57{fill:#8b6b6c;}.cls-58{fill:#8c6667;}.cls-59{fill:#bea4a0;}.cls-60{fill:#957478;}.cls-61{fill:#343138;}.cls-62{fill:#79585a;}.cls-63{fill:#7a5959;}.cls-64{fill:#7e5c5c;}.cls-65{fill:#454243;}.cls-66{fill:#604748;}.cls-67{fill:#563f40;}.cls-68{fill:#8c6868;}.cls-69{fill:#55403a;}.cls-70{fill:#8c6867;}.cls-71{fill:#ac967a;}.cls-72{fill:#2a272d;}.cls-73{fill:#342c32;}.cls-74{fill:#b8a585;}.cls-75{fill:#a68980;}.cls-76{fill:#937767;}.cls-77{fill:#684a4c;}.cls-78{fill:#a69698;}.cls-79{fill:#997a76;}.cls-80{fill:#634e4a;}.cls-81{fill:#a17b80;}.cls-82{fill:#ae987e;}.cls-83{fill:#ab938c;}.cls-84{fill:#6c5454;}.cls-85{fill:#8c6567;}.cls-86{fill:#7e5c59;}.cls-87{fill:#b39a91;}.cls-88{fill:#9e7a7a;}.cls-89{fill:#c6b794;}.cls-90{fill:#cdbe98;}.cls-91{fill:#b5a485;}.cls-92{fill:#a66873;}.cls-93{fill:#624635;}.cls-94{fill:#765555;}.cls-95{fill:#86344d;}.cls-96{fill:#a78588;}.cls-97{fill:#988480;}.cls-98{fill:#181a21;}.cls-99{fill:#d5cca8;}.cls-100{fill:#d2c197;}.cls-101{fill:#ac8786;}.cls-102{fill:#846d6c;}.cls-103{fill:#9b8672;}.cls-104{fill:#856763;}.cls-105{fill:#ab9696;}.cls-106{fill:#52433d;}.cls-107{fill:#806453;}.cls-108{fill:#7a696f;}.cls-109{fill:#201f24;}.cls-110{fill:#9f8d8d;}.cls-111{fill:#beae8d;}.cls-112{fill:#8a6a6d;}.cls-113{fill:#58493d;}.cls-114{fill:#ccc098;}.cls-115{fill:#a2838a;}.cls-116{fill:#b5a27d;}.cls-117{fill:#b68e8f;}.cls-118{fill:#9e8181;}.cls-119{fill:#a8907a;}.cls-120{fill:#93726d;}.cls-121{fill:#d4cba8;}.cls-122{fill:#c3bec0;}.cls-123{fill:#ddd4b3;}.cls-124{fill:#dcd6b5;}.cls-125{fill:#e1e1cc;}.cls-126{fill:#b79a9d;}.cls-127{fill:#c9ba96;}.cls-128{fill:#c4b590;}.cls-129{fill:#d0bd93;}.cls-130{fill:#bfb089;}.cls-131{fill:#c7b588;}.cls-132{fill:#c2b086;}.cls-133{fill:#af9e7c;}.cls-134{fill:#baaa89;}.cls-135{fill:#c0ad83;}.cls-136{fill:#b3a382;}.cls-137{fill:#a08b6c;}.cls-138{fill:#aa9774;}.cls-139{fill:#998465;}</style><clipPath id="clip-path"><circle class="cls-1" cx="282.47" cy="282" r="280.71"/></clipPath></defs><g class="cls-2"><path class="cls-3" d="M520.3,118.89l-2,.31-13.14-15.33q-4.9-5.49-9.8-11L483.18,79.13l-9.84-5.29-13.1-12-26-15.69-21.16-15L395.4,23.64,356.32,11,326.23,4.73,316.29,4l-36-1.17L265.25,4l-28,.72L233.3,5l-45,10.85-9.15,9c-2-1.42-4.78-4.53-6-4-11.78,5-23.31,10.56-34.92,16a3.12,3.12,0,0,0-.77.29l-16.23,9.72L50.32,112l-2.94,4.89-20.14,21L7.45,160.91c9-11.34,17.76-22.87,27-34,13-15.63,24.26-33.77,40.08-45.81,29.13-22.19,59-45.65,92.38-59.37C199.28,8.44,236.36,1.49,271.42,1.3c38.2-.21,77.43,7.07,114.46,17.37,51.15,14.24,92,46.68,126,87.42C515.12,110,517.51,114.61,520.3,118.89Z"/><path class="cls-4" d="M21.66,175.2c1.92-2.7,4.62-5,5.16-7.82.28-1.46-4.52-5.45-4.83-5.23A117.79,117.79,0,0,0,11.73,171Z"/><path class="cls-5" d="M4.21,166.86a1.31,1.31,0,0,0,.83.25c-1.73,13-4.51,26-5,39-1.23,34-3.18,68.21-1.5,102.16C-.12,335,6.18,361.37,10.26,387.9l10.16,17.16-1,.75C-5.19,376.38-7.23,342.32-4.31,305.76c2.73-34.15.23-68.68,1.34-103C-2.58,190.72,1.7,178.82,4.21,166.86Z"/><path class="cls-6" d="M19.4,405.81l1-.75,5.75-9c-.15-1.43-.29-2.86-.44-4.3a12.07,12.07,0,0,0,2.14.28c2.62-.1,5.23-.27,7.85-.42-1.27-2.12-3.21-4.09-3.7-6.38-2.48-11.41-4.58-22.9-6.82-34.36,5.2,11.36,10.44,22.71,15.55,34.11a37.78,37.78,0,0,1,1.61,5.95q1,8,2,15.93l-8,6c-.31-1.22-.62-2.44-.94-3.65L27.23,415Z"/><path class="cls-7" d="M94.3,503l-2,1.75-10.91-5.89,5.74,1c7,1.16,14.4,1.13,20.75,3.74,10.15,4.18,19.58,10.11,29.31,15.3l.63,1.76-21.66-3.71Z"/><path class="cls-8" d="M87.18,499.84l-5.74-1-44-67.9,1-.38,35.79,37.36c.08,3.18-.83,6.83.44,9.43,3.75,7.74,8.37,15.06,12.64,22.55Z"/><path class="cls-9" d="M38.42,430.55l-1,.38q-5.08-8-10.18-16l8.16-5.76c.32,1.21.63,2.43.94,3.65q1,6.52,2,13Z"/><path class="cls-10" d="M580.12,330.92s-.77,3.86-.41,4c.14,0,.41-.42.4-.43l-.4.43c-.74.83-4.19,9.28-8.31,21.09q-2-7.59-4-15.19-.06-10.46-.11-20.91l-7-24c2.59-6.58,5.58-13,7.57-19.8.68-2.31-1-5.38-1.89-8-.11-.33-1.53-.24-2.35-.34l-2.07-3.27,3.84-12.58C568.62,263,573,274,575,285.39,577.65,300.39,578.49,315.72,580.12,330.92Z"/><path class="cls-11" d="M525.26,485.83c-.7,2.11-.9,4.68-2.25,6.23-1.76,2-4.44,3.24-6.73,4.81a28,28,0,0,0,3.83-4.52c.4-.71-.54-2.16-.87-3.28l-42.92,20.65-4,1.06,25.92-26.94.05,0c5.11-.19,11.24,1.27,15-1.06,3.29-2,4.16-8.26,5.72-12.77,2.29-6.63,4.24-13.37,6.34-20.06l3.12-3.93,10.61,5.67Q532.18,468.79,525.26,485.83Z"/><path class="cls-12" d="M539.08,451.73l-10.61-5.67-11-12.26q2.39-11.49,4.78-23L537.45,396l10.89,14.89c-.07.63-.13,1.27-.19,1.9-14.61,10.38-16.82,21.1-5.72,27.75l.1.28-.26.14c0,.64,0,1.27,0,1.91Z"/><path class="cls-13" d="M401.1,546.94,392.35,548c-.39-.76-.78-1.52-1.16-2.28l6.07-12.87,11.08-12.07,1.85,3.13,26,.87,20.18-5.76Z"/><path class="cls-14" d="M456.37,519.05l-20.18,5.76,24.07-21.88,4-4C473,488.08,483,480,498.21,483.84l-25.92,26.94Z"/><path class="cls-15" d="M567.37,340.78q2,7.61,4,15.2l-8.22,23.68-4,2.15c-3.22.32-7.25-.46-9.47,1.2-3.76,2.81-6.38,7.16-9.48,10.86,2.38-1.62,6.14-2.85,6.73-5,.5-1.77-2.42-4.85-4.35-6.84-1.15-1.18-3.31-1.37-5-2,1.53-1.64,3.21-3.15,4.56-4.92,8.4-11,16.72-22.1,25.06-33.16C567.26,341.58,567.32,341.18,567.37,340.78Z"/><path class="cls-16" d="M580.12,330.92c-1.63-15.2-2.47-30.53-5.13-45.53-2-11.39-6.37-22.37-9.69-33.53q-4.51-19.44-9-38.87l-1.17-5.9-1.81-5.15,2.12.85q12.44,60.14,24.8,120.27C580.71,325.57,580.17,328.29,580.12,330.92Z"/><path class="cls-17" d="M476.32,509.72l42.92-20.65c.33,1.12,1.27,2.57.87,3.28a28,28,0,0,1-3.83,4.52Z"/><path class="cls-16" d="M559.18,381.81l4-2.15q-9.45,28.66-18.93,57.33a30.44,30.44,0,0,1-2,4l.26-.14-.1-.28q2.85-13.87,5.72-27.75c.06-.63.12-1.27.19-1.9Q553.76,396.37,559.18,381.81Z"/><path class="cls-3" d="M539.08,451.73l3.2-8.82q-8.5,21.45-17,42.92Q532.17,468.78,539.08,451.73Z"/><path class="cls-18" d="M505.13,103.87l13.14,15.33,2.12,3.82c.35.92.69,1.85,1,2.78l-2,21-2.12.12c-2.77-4.58-5.54-9.15-8.23-13.78a7.2,7.2,0,0,1,1.69-1.11c1.73-.7,3.67-1.06,5.17-2.08.45-.3-.26-3.4-.46-3.4-2.08,0-4.15.51-6.23.55-3.33.06-6.65-.13-10-.21h0Q502.18,115.38,505.13,103.87Z"/><path class="cls-19" d="M519.39,146.78q.47-10.5.94-21c2.75,2.73,5.47,5.65,8.27,8.1,1.15,1,2.49,1,3.74,1.51l-7,2.48L527.12,149Z"/><path class="cls-20" d="M536.1,149q-1.87-5.58-3.76-11.15l21,57.9-1.09,2.14-11.16-36.06Z"/><path class="cls-21" d="M226.35,557.94l-17.94-2.2-13.19-7.81c0-2,.05-4,.08-6,2.24,2.68,4.26,5.6,6.86,7.86.73.63,3.17-.7,4.83-1.14-2.17-1.9-4.57-3.6-6.4-5.79-.78-.93-.68-4.1-.44-4.16,5.66-1.44,11.39-2.59,17.1-3.79l4.06-.88c11.62,1,23.35,1.28,34.8,3.24,5,.85,9.43,5.08,14.11,7.77l11.07,6.82,17.95,4.13-7.19,6-19.77,2-10.1,1.2-23.91-13.28Z"/><path class="cls-22" d="M262.18,565.2l10.1-1.2c2.2,4.3,4.93,12.5,6.52,12.28,11.05-1.49,21.84-4.81,32.77-7.29,1-.24,2.75,1,3.62,2,1.55,1.79,2.71,5.59,4,5.58,3.36,0,6.71-1.67,10.07-2.66l30.92-7c-36.16,15.77-72.37,26.95-108.92,1Z"/><path class="cls-23" d="M360.19,566.86l-30.92,7c.32-1,.65-2,1-3l18.93-14.08,3.12-16.88,8.15,4.86,13.89,7.06-5.94,12.23Z"/><path class="cls-24" d="M189.38,551.8,118.2,523l.11-.12,42,8,5.94,2.09c1.47,2.3,2.44,5.29,4.49,6.78C176.72,544.06,183.14,547.81,189.38,551.8Z"/><path class="cls-25" d="M262.18,565.2l-10.91,2.68L243,564q-2.35-6.06-4.7-12.11Z"/><path class="cls-26" d="M189.38,551.8c-6.24-4-12.66-7.74-18.65-12.09-2-1.49-3-4.48-4.49-6.78,2.5,1.76,4.82,3.9,7.54,5.23,7.05,3.44,14.28,6.54,21.44,9.77l13.19,7.81Z"/><path class="cls-24" d="M94.3,503l21.91,14,2.1,5.92-.11.12Z"/><path class="cls-27" d="M368.39,564.05l5.94-12.22,16-5.94a4.45,4.45,0,0,1,.9-.14c.38.76.77,1.52,1.16,2.28Z"/><path class="cls-28" d="M238.27,551.92q2.35,6,4.7,12.11l-16.62-6.09Z"/><path class="cls-29" d="M541.12,161.87l11.16,36.06c.33,1.33.67,2.67,1,4,.6,1.72,1.2,3.43,1.81,5.15-2.63-2.25-6-4-7.74-6.83-4.14-6.83-7.49-14.14-11.16-21.25-.25-1-.51-2-.77-3Z"/><path class="cls-30" d="M473.34,73.84l9.84,5.29L490.29,94l-8,4.22q8.44,14.34,16.9,28.69h0l-2.28.67a18.59,18.59,0,0,0,.91,2q5.7,9.21,11.43,18.41c1.19,1.56,2.19,4.21,3.6,4.45,3.36.56,9.71-.82,10,0,2.68,9.34,4.44,18.94,6.45,28.47l7.89,28.1-5.79,8.88,19.1,25.2q-.18,10.43-.34,20.84c-.35,1-.69,2-1,3-2.6,2.19-7.47,4.44-7.42,6.59.3,15.81,1.59,31.61,2.57,47.41-3-27.18-5.68-54.4-9.18-81.52-.64-5-5.87-9.34-6.6-14.34-5.94-40.89-19.61-78.09-49.22-108.14l-19-38Z"/><path class="cls-31" d="M50.32,112l70.89-65.14c.07.43.15.85.22,1.27l-3.18,12.77-17,10-8,18c-2.07-.2-4.32,0-6.16-.71-2.47-1-4.63-2.79-6.92-4.24l-3.94,7Q71.8,99.45,67.41,108L66.27,113Z"/><path class="cls-32" d="M395.4,23.64l17.69,7.51L405,41.89c5,.9,9.95,1.7,14.87,2.78.9.2,1.57,1.48,2.34,2.27l-38.89-1c3.05-1,8.79-2.3,8.72-2.85-.78-5.83-2.49-11.53-3.95-17.27Z"/><path class="cls-33" d="M499.23,126.88q-8.44-14.35-16.9-28.69l8-4.22,5-1.07q4.91,5.47,9.8,11Q502.18,115.38,499.23,126.88Z"/><path class="cls-34" d="M34.34,177c.92-4.38,2.91-8.87,2.48-13.12-.5-5-3-9.73-4.83-14.53-1.46-3.87-3.16-7.65-4.75-11.47l20.14-21q2.4,9.08,4.81,18.13c-.21,2.53.24,5.36-.74,7.53-4.17,9.23-8.77,18.27-13.21,27.37Zm2.31-36c1.63,2.08,2.8,5,4.65,5.51,1.5.43,3.81-2,5.76-3.15q-3.8-5.53-7.61-11.05C38.66,134.76,37.86,137.23,36.65,141Z"/><path class="cls-35" d="M137.44,37.1a3.12,3.12,0,0,1,.77-.29c5.68-.32,11.46,0,17-1.08,7.7-1.45,15.22-3.89,22.82-5.91.11,1.37.21,2.74.31,4.11l-34.06,23-3,.06-5-4.19Q136.88,45,137.44,37.1Z"/><path class="cls-36" d="M434.25,46.17l26,15.69L446.36,69,431.19,50.07Z"/><path class="cls-37" d="M178,29.83c-7.6,2-15.12,4.45-22.82,5.9-5.54,1-11.32.76-17,1.08,11.61-5.41,23.14-11,34.92-16,1.22-.52,4,2.59,6,4Q178.59,27.34,178,29.83Z"/><path class="cls-38" d="M237.23,4.68l28-.72q-2,3.46-4,6.93l-9,10-5,0Q242.26,12.81,237.23,4.68Z"/><path class="cls-39" d="M434.25,46.17l-3.06,3.9-9-3.13c-.77-.79-1.44-2.07-2.34-2.27-4.92-1.08-9.9-1.88-14.87-2.78l8.11-10.74Z"/><path class="cls-40" d="M446.36,69l13.88-7.14,13.1,12-13,5.08Z"/><path class="cls-41" d="M237.23,4.68q5,8.13,10.07,16.26l-10.05-7.08c-2.15-1-4.53-3.09-6.37-2.69-2.9.62-5.34,4-8.15,4.25-3.46.31-7.09-1.39-10.66-2.22L212.4,22a2.2,2.2,0,0,0-.15.92l-7,1.19-11-2.24.21-1c4.54-3,8.72-6.95,13.69-8.82,8.1-3,16.72-4.75,25.12-7Z"/><path class="cls-42" d="M233.3,5c-8.4,2.27-17,4-25.12,7-5,1.87-9.15,5.81-13.69,8.82l-6.21-5Z"/><path class="cls-43" d="M280.25,2.82l36,1.17-7,7-11,1-11.12-1Z"/><path class="cls-44" d="M326.23,4.73,356.32,11l-7.05,3.92a1.32,1.32,0,0,0-.16.85l-9.83,5.11-6-11Z"/><path class="cls-45" d="M349.27,14.89,356.32,11,395.4,23.64l-7.33,2.15a2.22,2.22,0,0,0-.85,0Z"/><path class="cls-46" d="M188.28,15.84l6.21,5-.21,1q-8,6-15.94,12.08c-.1-1.37-.2-2.74-.31-4.11q.56-2.47,1.1-5Z"/><path class="cls-37" d="M137.44,37.1q-.56,7.84-1.13,15.7l-11-3.78-3.83-.93c-.08-.42-.16-.84-.23-1.27Z"/><path class="cls-47" d="M326.23,4.73l7.06,5.17-17.08,7h-7.89q.51-3,1-5.94l7-7Z"/><path class="cls-48" d="M52.19,135q-2.41-9.06-4.81-18.13L50.32,112l15.95,1-9,5.93.06,5c0,.31-.08.63-.1.94Z"/><path class="cls-49" d="M280.25,2.82,287.16,11l-5.93.05-20-.11q2-3.47,4-6.93Z"/><path class="cls-50" d="M495.33,92.9l-5,1.07-7.11-14.84Z"/><path class="cls-51" d="M10.26,387.9C6.18,361.37-.12,335-1.44,308.29c-1.68-34,.27-68.12,1.5-102.16.47-13,3.25-26,5-39C5.78,180,7.16,192.86,7.1,205.73,7,223.47,5.85,241.21,5.15,259c.34,1.34.69,2.69,1,4,0,1.27-.06,2.55-.1,3.83q1.61,19,3.2,38.06c-1.87,7.68-5.59,15.45-5.2,23,.57,11.16,4.75,22.1,6.1,33.29C11.23,370,10.31,379,10.26,387.9Z"/><path class="cls-52" d="M34.34,177l3.9-7.08L37.16,184q-3,5.9-6,11.79-2.06,6.6-4.12,13.19l-13.85-9q.66-11.07,1.31-22.12c5,2.9,10.05,5.84,15.14,8.65a11.88,11.88,0,0,0,3.16.76Z"/><path class="cls-53" d="M13.23,199.9l13.85,9c.38,2,.76,4,1.15,5.93l-14.89,6-.26.18Z"/><path class="cls-53" d="M6.18,263c-.34-1.35-.69-2.7-1-4,3.31-7.88,7.39-15.54,9.6-23.71,1.15-4.27-1-9.43-1.67-14.19l.26-.18c2.34,2.6,4.82,5.09,7,7.83a48.09,48.09,0,0,1,3.48,6c-1.41.79-3.35,1.22-4.13,2.42-4,6.2-7.72,12.58-11.53,18.91l2.08.94Z"/><path class="cls-54" d="M21.66,175.2,11.73,171A117.79,117.79,0,0,1,22,162.15c.31-.22,5.11,3.77,4.83,5.23C26.28,170.15,23.58,172.5,21.66,175.2Z"/><path class="cls-55" d="M10.26,387.9c.05-8.91,1-17.93-.08-26.72C8.83,350,4.65,339.05,4.08,327.89c-.39-7.56,3.33-15.33,5.2-23q3,8,6,16c-.94.82-2.82,1.82-2.7,2.45,4.42,24.26,9,48.48,13.6,72.71l-5.75,9Z"/><path class="cls-56" d="M281.29,551.81,270.22,545c-7.2-5.35-14.29-10.85-21.81-15.69-.53-.34-4.14,6.08-6.47,6.2-6.83.35-13.75-.9-20.63-1.52l-4.05.88-12-2c-11.79-5-23.4-10.53-35.44-14.85-6.85-2.45-14.4-3-21.64-4.34l-8,1.13-2.89,0q-3.56-10.43-7.12-20.84c-1.38-2.4-2.28-5.33-4.23-7.13-9-8.37-19-15.86-27.49-24.74C86.57,449.66,89,419.18,58.27,430.88q-3-9.45-6.1-18.92l0,0q-4.92-10.54-9.85-21.07A37.78,37.78,0,0,0,40.75,385c-5.11-11.4-10.35-22.75-15.55-34.11l0-9.06,5-53.93.06-7c.55,6.56.71,13.17,1.71,19.66,4.11,26.63-18.81,56.18,11.86,80.5C59,393.1,68.35,412.3,81.61,427.11c23.81,26.61,47.13,54,73.66,77.69,11.6,10.35,30.38,13.12,46.3,18,11.63,3.57,26.24,10.29,35.43,6.27,17.82-7.81,27.17-4.92,35,11.66,1.72,3.67,6.16,6.07,9.34,9,1.56-3.13,2.63-6.69,4.83-9.27,1.6-1.88,4.7-2.48,7.14-3.65Z"/><path class="cls-57" d="M25.23,341.81l0,9.06c2.24,11.46,4.34,22.95,6.82,34.36.49,2.29,2.43,4.26,3.7,6.38-2.62.15-5.23.32-7.85.42a12.07,12.07,0,0,1-2.14-.28c.15,1.44.29,2.87.44,4.3-4.58-24.23-9.18-48.45-13.6-72.71-.12-.63,1.76-1.63,2.7-2.45l9.92-7.06Q25.21,327.81,25.23,341.81Z"/><path class="cls-58" d="M38.3,425.89q-1-6.51-2-13l8-6L52.21,412l0,0q1.56,9.94,3.14,19.88Z"/><path class="cls-59" d="M52.21,412l-7.89-5.14q-1-8-2-15.93Q47.28,401.46,52.21,412Z"/><path class="cls-60" d="M130.22,494q3.56,10.42,7.12,20.84c0,1.35-.06,2.69-.1,4-9.73-5.19-19.16-11.12-29.31-15.3-6.35-2.61-13.79-2.58-20.75-3.74l.11.05q-.5-10.5-1-21Z"/><path class="cls-61" d="M137.24,518.88c0-1.35.07-2.69.1-4l2.89,0,18,12.2,2.09,3.82-42-8-2.1-5.92,21.66,3.71Z"/><path class="cls-62" d="M38.3,425.89l17,5.95.89.1.15.88,25.81,32.12,1.17,1.83v1.12l-9.12,0L38.42,430.55Z"/><path class="cls-63" d="M74.21,467.91l9.12,0q1.47,5.5,3,11,.51,10.5,1,21C83,492.4,78.4,485.08,74.65,477.34,73.38,474.74,74.29,471.09,74.21,467.91Z"/><path class="cls-64" d="M549.12,266.89c.34-1,.68-2,1-3l1.92,8.71,9.4-8.12,2.07,3.27c-.28,3.23.16,6.77-1.06,9.6-1,2.27-4,3.67-6.06,5.49-1,.85-2.81,2.32-2.64,2.62,2,3.59,4.23,7,6.43,10.47l7,24-15,9.09c-.79-3-2.18-6-2.26-9C549.51,302.28,549.36,284.58,549.12,266.89Z"/><path class="cls-65" d="M561.47,264.44l-9.4,8.12-1.92-8.71.33-20.84q-.6-8.58-1.22-17.15,3.5-6.44,7-12.87,4.51,19.42,9,38.87Q563.4,258.15,561.47,264.44Z"/><path class="cls-66" d="M552.22,329l15-9.1q.06,10.46.11,20.91c0,.39-.11.79-.16,1.18-1.84-2.55-4.24-7.48-5.43-7.21-3.64.85-6.81,3.69-10.17,5.75l.48-6.78C552.13,332.15,552.18,330.56,552.22,329Z"/><path class="cls-67" d="M560.21,295.89c-2.2-3.47-4.47-6.88-6.43-10.47-.17-.3,1.67-1.77,2.64-2.62,2.08-1.82,5.08-3.22,6.06-5.49,1.22-2.83.78-6.37,1.06-9.6.82.1,2.24,0,2.35.34.84,2.66,2.57,5.73,1.89,8C565.79,282.85,562.8,289.31,560.21,295.89Z"/><path class="cls-68" d="M498.21,483.84C483,480,473,488.08,464.28,498.9c-4.89-8.44-7-15,6.64-17.12,6.64-1,14.58-4.09,18.69-9,10.26-12.18,18.67-25.91,27.82-39l11,12.26L525.35,450l-27.09,33.89Z"/><path class="cls-69" d="M498.26,483.88,525.35,450c-2.1,6.69-4.05,13.43-6.34,20.06-1.56,4.51-2.43,10.75-5.72,12.77C509.5,485.15,503.37,483.69,498.26,483.88Z"/><path class="cls-70" d="M552.09,333.73l-.48,6.78c3.36-2.06,6.53-4.9,10.17-5.75,1.19-.27,3.59,4.66,5.43,7.21-8.34,11.06-16.66,22.14-25.06,33.16-1.35,1.77-3,3.28-4.56,4.92,1.71.64,3.87.83,5,2,1.93,2,4.85,5.07,4.35,6.84-.59,2.12-4.35,3.35-6.73,5L537.45,396l-15.24,14.79c2.35-11.07,3.33-22.7,7.56-33,2.61-6.36,10.18-10.68,15.52-15.92.71-2.69,1.49-5.36,2.13-8.07C549,347.15,550.53,340.43,552.09,333.73Z"/><path class="cls-71" d="M545.29,361.91c-5.34,5.24-12.91,9.56-15.52,15.92-4.23,10.3-5.21,21.93-7.56,33q-2.38,11.49-4.78,23c-9.15,13.11-17.56,26.84-27.82,39-4.11,4.87-12.05,7.94-18.69,9-13.64,2.1-11.53,8.68-6.64,17.12l-4,4c-2.7-2.71-5.68-5.19-8-8.19s-4-6.53-6-9.83c25.59-9.64,53.72-15.39,60.76-49,4.39-21,11.39-41.4,17.22-62.08l3-5Z"/><path class="cls-72" d="M537.45,396l2.78-2.17c3.1-3.7,5.72-8.05,9.48-10.86,2.22-1.66,6.25-.88,9.47-1.2q-5.41,14.55-10.84,29.12Z"/><path class="cls-73" d="M548.15,412.83q-2.86,13.88-5.72,27.75C531.33,433.93,533.54,423.21,548.15,412.83Z"/><path class="cls-68" d="M446.28,484.91c2,3.3,3.64,6.82,6,9.83s5.31,5.48,8,8.19l-24.07,21.88-26-.87q3.57-5.52,7.13-11c4.61-.54,9.22-1,13.82-1.64,2.14-.28,4.53-.28,6.24-1.32.9-.55,1.4-3.63.72-4.63-7.55-11.05-2.35-16.75,8.19-20.41Z"/><path class="cls-74" d="M417.32,512.91q-3.57,5.51-7.13,11l-1.85-3.13q1.32-5.34,2.65-10.67c-2.77,2-6.5,3.5-8.11,6.22-2.6,4.41-3.81,9.64-5.61,14.53l-18,2-10-1.07-5-3c17-9.49,34.09-18.78,50.91-28.56,8.62-5,16.73-10.92,25.07-16.42,0,.33,0,.66,0,1Z"/><path class="cls-75" d="M379.27,532.9l18-2c0,.66,0,1.32,0,2l-6.07,12.87a4.45,4.45,0,0,0-.9.14Z"/><path class="cls-76" d="M397.26,532.88c0-.67,0-1.33,0-2,1.8-4.89,3-10.12,5.61-14.53,1.61-2.72,5.34-4.19,8.11-6.22q-1.32,5.34-2.65,10.67Z"/><path class="cls-77" d="M556.26,213q-3.51,6.44-7,12.87a62.1,62.1,0,0,0,1.25-8.49,19,19,0,0,0-1.23-7.73c-.43-1-3.06-1.15-4.74-1.39a6.12,6.12,0,0,0-1,2.82c-.23,3.36-.28,6.73-.4,10.1l-11.77-3.36,5.79-8.88c2.44-1.26,7.15-3.11,7-3.69-2.29-8.84-5.21-17.52-8-26.23,3.67,7.11,7,14.42,11.16,21.25,1.7,2.81,5.11,4.58,7.74,6.83Z"/><path class="cls-78" d="M529.29,180.83c-2-9.53-3.77-19.13-6.45-28.47-.24-.81-6.59.57-10,0-1.41-.24-2.41-2.89-3.6-4.45l8-1,2.12-.12L536.11,149l5,12.83L535.42,176Z"/><path class="cls-33" d="M517.27,146.9l-8,1q-5.71-9.19-11.43-18.41a18.59,18.59,0,0,1-.91-2l2.28-.67c3.33.08,6.65.27,10,.21,2.08,0,4.15-.56,6.23-.55.2,0,.91,3.1.46,3.4-1.5,1-3.44,1.38-5.17,2.08a7.2,7.2,0,0,0-1.69,1.11C511.73,137.75,514.5,142.32,517.27,146.9Z"/><path class="cls-79" d="M352.29,539.9l-3.12,16.88c-5.61,1.25-11.17,2.8-16.84,3.66s-11.38,1-17.08,1.45c.62-1.48,2.14-3.41,1.67-4.36-1.08-2.22-3.12-4-4.77-5.91-1.26,3.26-2.39,6.58-3.83,9.76-.89,2-2.69,5.44-3.32,5.28-4.43-1.14-8.65-3-12.95-4.71l7.19-6,10.1-10,37.93-6.11Z"/><path class="cls-80" d="M292.05,562c4.3,1.66,8.52,3.57,12.95,4.71.63.16,2.43-3.32,3.32-5.28,1.44-3.18,2.57-6.5,3.83-9.76,1.65,1.94,3.69,3.69,4.77,5.91.47,1-1.05,2.88-1.67,4.36,1.5,3.88,2.12,8.73,4.87,11.26,1.45,1.33,6.62-1.4,10.12-2.29-.32,1-.65,2-1,3-3.36,1-6.71,2.63-10.07,2.66-1.3,0-2.46-3.79-4-5.58-.87-1-2.59-2.24-3.62-2-10.93,2.48-21.72,5.8-32.77,7.29-1.59.22-4.32-8-6.52-12.28Z"/><path class="cls-81" d="M158.21,527l-18-12.2,8-1.13c7.43,3.12,14.92,6.12,22.27,9.41,6.46,2.88,12.54,6.84,19.23,8.91,4.82,1.49,10.36.66,15.58.87l12,2c-5.72,1.2-11.45,2.35-17.11,3.79-.24.06-.34,3.23.44,4.16,1.83,2.19,4.23,3.89,6.4,5.79-1.66.44-4.1,1.77-4.83,1.14-2.6-2.26-4.62-5.18-6.86-7.86-7.45-2.62-15-5-22.34-7.92C167.91,532,163.12,529.36,158.21,527Z"/><path class="cls-82" d="M221.31,534c6.88.62,13.8,1.87,20.63,1.52,2.33-.12,5.94-6.54,6.47-6.2,7.52,4.84,14.61,10.34,21.81,15.69-4.68-2.69-9.11-6.92-14.11-7.77C244.66,535.26,232.93,535,221.31,534Z"/><path class="cls-83" d="M309.34,546l-10.1,10-17.95-4.13,12-14.93,8,3Z"/><path class="cls-84" d="M158.21,527c4.91,2.34,9.7,5,14.75,6.94,7.35,2.88,14.89,5.3,22.34,7.92,0,2-.05,4-.08,6-7.16-3.23-14.39-6.33-21.44-9.77-2.72-1.33-5-3.47-7.54-5.23l-5.94-2.09Z"/><path class="cls-85" d="M379.27,532.9l11,13-16,5.94-13.89-7.07,8.83-12.93Z"/><path class="cls-86" d="M330.24,570.86c-3.5.89-8.67,3.62-10.12,2.29-2.75-2.53-3.37-7.38-4.87-11.26,5.7-.46,11.44-.6,17.08-1.45s11.23-2.41,16.84-3.66Z"/><path class="cls-87" d="M369.27,531.83l-8.83,12.93-8.15-4.86-5,0,17-11Z"/><path class="cls-88" d="M529.29,180.83l6.13-4.84c.26,1,.52,2,.77,3,2.78,8.71,5.7,17.39,8,26.23.15.58-4.56,2.43-7,3.69Z"/><path class="cls-89" d="M364.3,528.88l-17,11L309.34,546l-8.08-6.07c3.27-1.38,6.46-3.67,9.81-3.92,6.45-.5,13.9,2.22,19.28-.14,7.88-3.47,13.74-11.37,21.51-15.31,10.67-5.42,22.42-8.64,33.53-13.26,26-10.82,53.37-19.43,77.27-33.78,15.12-9.07,28.66-25.1,36.42-41.15,15.26-31.56,29.59-64.51,37.13-98.48,3.93-17.72-7.79-38.75-11.58-58.45-1.32-6.86-.83-14.34.28-21.31.8-5.07,5-9.62,5.7-14.67.45-3.17-3.77-6.72-4.2-10.31-5.06-41.63-21-78.58-47.14-111.23v-1c29.61,30.05,43.28,67.25,49.22,108.14.73,5,6,9.36,6.6,14.34,3.5,27.12,6.21,54.34,9.18,81.52q-8.5,24-17,48l-3,5c-3,8.48-7,16.75-8.69,25.48-8.26,43.37-25.7,78.16-75.29,84.54-8.34,5.5-16.45,11.4-25.07,16.42C398.39,510.1,381.29,519.39,364.3,528.88Z"/><path class="cls-90" d="M479.27,116.89v1l-20-20c-2.07-1.57-4.39-2.9-6.18-4.75-20.95-21.68-45.87-33.22-76.3-37.36-13.44-1.83-25.46-15.19-37.7-23.9-2-1.42-1.87-5.87-2.72-8.93-.37-1.2-.74-2.41-1.1-3.61l4,1.51,9.83-5.11,4,4.36,3.16,13.8,27,12,.05,0,38.89,1,9,3.13L446.36,69l13.95,9.92Z"/><path class="cls-91" d="M527.24,368.87q8.52-24,17-48c-1-15.8-2.27-31.6-2.57-47.41-.05-2.15,4.82-4.4,7.42-6.59.24,17.69.39,35.39.84,53.08.08,3,1.47,6,2.26,9,0,1.59-.09,3.18-.13,4.76-1.56,6.7-3.08,13.42-4.67,20.11-.64,2.71-1.42,5.38-2.13,8.07Z"/><path class="cls-88" d="M531.39,217.81l11.77,3.36c.12-3.37.17-6.74.4-10.1a6.12,6.12,0,0,1,1-2.82c1.68.24,4.31.39,4.74,1.39a19,19,0,0,1,1.23,7.73,62.1,62.1,0,0,1-1.25,8.49q.62,8.56,1.22,17.15Z"/><path class="cls-92" d="M57.27,118.88l9-5.93L67.41,108,86.25,94.85l6.93-6,8-18c19.13-.39,19.13-.39,17-10q1.59-6.37,3.19-12.77l3.83.93c1.24,2.61,1.92,5.8,3.87,7.68,1.75,1.68,4.88,1.91,7.4,2.78-1,2.27-1.39,5.06-3,6.72-4,4.09-8.09,8.22-12.8,11.35C99.71,91.52,78.45,105.14,57.27,118.88Z"/><path class="cls-93" d="M86.25,94.85,67.41,108q4.38-8.58,8.75-17.16Z"/><path class="cls-94" d="M118.25,60.86c2.1,9.59,2.1,9.59-17,10Z"/><path class="cls-95" d="M86.25,94.85l-10.09-4q2-3.48,3.94-7c2.29,1.45,4.45,3.23,6.92,4.24,1.84.75,4.09.51,6.16.71Z"/><path class="cls-96" d="M356.29,33.9q-1.57-6.9-3.16-13.8c3.78,1,7.85,1.35,11.19,3.12,1.67.89,1.4,5,3.07,6.42,2.39,2,6.32,4.62,8.56,3.87,4.15-1.37,7.56-5,11.27-7.68a2.22,2.22,0,0,1,.85,0c1.46,5.74,3.17,11.44,3.95,17.27.07.55-5.67,1.88-8.72,2.85l-.05,0c-3.54-3.65-6.47-8.72-10.78-10.56C367.74,33.3,361.74,34.24,356.29,33.9Z"/><path class="cls-97" d="M37.16,184l1.08-14.09c4.44-9.1,9-18.14,13.21-27.37,1-2.17.53-5,.74-7.53l5-10.13c-.25,4.32.39,8.93-.93,12.89-2.84,8.55-6.68,16.76-10.11,25.11Z"/><path class="cls-98" d="M36.65,141l2.8-8.69q3.81,5.52,7.61,11.05c-2,1.16-4.26,3.58-5.76,3.15C39.45,146,38.28,143.06,36.65,141Z"/><path class="cls-99" d="M205.29,24.09l7-1.19,33,1L256.3,24l25-11.09,9.71,12,10.34,1,16.06,4,9.86,2.92c2.77,3.41,5.52,6.83,8.3,10.23,2.48,3,4.91,6.12,7.55,9,.51.56,1.9.32,2.89.45-.55-2.06-1.13-4.12-1.63-6.19a8,8,0,0,1-.05-1.77c1.24,0,2.71-.38,3.7.14,8.08,4.29,15.64,10.12,24.19,12.83C385.85,61.9,402,61,413.79,67.83c55.31,32.07,92.64,78.7,103.9,142.8,2.41,13.68-.64,29.08-4.31,42.86-3.59,13.51-8.83,24.65,6,35.46,4,2.94,2.1,14.06,2.85,21.43.06.6-.18,1.72-.46,1.79-6,1.36-12.17,2.45-18.16,4-1,.27-1.87,2.45-2.18,3.88-.54,2.51.33,5.9-1,7.54-4.79,5.75-10.35,10.85-15.48,16.33-2.19,2.33-3.66,5.51-6.16,7.35s-8.63,4.3-8.87,3.9a126.68,126.68,0,0,1-8.5-17.35c-.74-1.79-.12-4.13-.13-6.23a38.65,38.65,0,0,1-4.65,2.69,36.62,36.62,0,0,1-5.82,1.7c-.18,0-1-1.17-.86-1.46,5.25-10.26,10.45-20.55,15.95-30.68,1.88-3.46,4.54-6.49,6.85-9.71-3.49-2.25-7.06-4.39-10.44-6.79-1.92-1.36-4.43-2.84-5.13-4.81-3.11-8.78-4.48-18.39-8.83-26.44-3.18-5.88-10.34-9.49-15.06-14.72-2-2.24-1.47-6.87-3.54-9-10.82-10.94-21.74-21.84-33.35-31.92-8-6.92-17-12.63-25.8-18.6a277.31,277.31,0,0,0-23.74-15A31.8,31.8,0,0,0,333,163.49c-2.1-.05-4.19,3.6-6.48,5.3-2.44,1.8-5.07,4.57-7.69,4.65-9.06.28-18.15-.43-27.23-.76,4,6.45,9.27,12.25-5.11,6.82-5.2-2-13.28,5.38-20.31,6.17-8.85,1-18,.25-26.94-.93-7.91-1.05-15.63-3.6-23.33-5.85-.88-.26-1.06-2.92-1.57-4.47-1.89,1.65-4.42,3-5.52,5-1.4,2.62-1.65,5.86-2.39,8.83-3.36-1.43-6.67-3-10.11-4.23-1.71-.6-3.68-.51-5.53-.73-.08.78-.49,1.72-.19,2.31a16.47,16.47,0,0,0,2.21,2.86c-.84.45-1.91,1.47-2.47,1.24-1.46-.62-2.62-1.91-4-2.67a32.42,32.42,0,0,0-6.71-3,3.75,3.75,0,0,0-3.21,1.7c-.38.81.91,2.28.91,3.46,0,1.89,0,4.05-.83,5.62a30.38,30.38,0,0,1-5.76,7.93c-6.23,5.66-12,13-19.48,15.75-7.27,2.64-16.36.6-24.61,0-1.7-.12-3.2-2.93-4.79-4.5a8.19,8.19,0,0,0,1.65-1.68c5.72-10.58,23.5-18.24,8.27-33.93-1.68-1.73-3.26-3.56-4.89-5.34-1.21,2-2.13,5.37-3.67,5.68-5.59,1.14-12.13,3.1-16.9,1.2-4.59-1.81-9.12-12.26-10.79-11.6-10.18,4-19.54,10.13-29.17,15.54.59-1.54,1.55-3.08,1.59-4.63,0-.74-1.75-1.52-2.7-2.28l-7.89,30.89c-3,.5-6.93,2.37-8.83,1.14-2.45-1.58-5.41-7-4.5-8.43C51.26,189.44,60.36,179.4,67.09,168c6-10.16,7.3-23.76,14.77-32.21,18.68-21.11,39.76-40.1,59.66-60.16,1.74-1.75,1.88-5.09,2.77-7.68-.67-2.67-1.35-5.34-2-8-.32-1-.65-1.94-1-2.91l3-.06c3.91.87,8.25,3.24,11.65,2.29,8.19-2.28,17-4.68,23.62-9.68C189.07,42.28,196.8,32.69,205.29,24.09Zm312.6,206.55c-8.43-58.34-31.91-104.48-75-138.57-10.34-8.18-27.35-8.76-41.59-10.84-9-1.32-18.56,1.21-27.89,1.65-2,.09-4.07-1.43-6.11-2.21.9,1.88,1.72,3.81,2.72,5.63.9,1.65,2.5,3.1,2.82,4.81.18,1-1.78,3.38-2.5,3.27-6.12-.86-12.13-2.69-18.26-3.2-11.25-.94-22.56-1.2-33.85-1.6-.54,0-1.75,1.53-1.61,2.08,2.52,9.39,5.35,18.7,7.69,28.13.36,1.45-1.24,3.46-2.08,5.14-1.93,3.84-6.44,10.09-5.51,11,5.24,5.31,11.77,9.33,17.86,13.78,1.27-2.42,3-4.71,3.7-7.29,1.32-5,2-10.25,3-15.39,10.76,3.78,22.51,6,31.93,11.91,6.24,3.91,9.57,12.9,13.4,20.05,3.74,7,5.17,19.7,9.88,20.88,15.22,3.82,25,8.41,24.17,26.73-.72,15.82,2.08,16.82,14.09,10.92,3.62-1.78,8.85-3.15,12.13-1.79,2.32,1,2.57,6.86,3.79,10.53,3.95,11.91,7.81,23.85,12,35.68a26,26,0,0,0,4.54,7.7c4.5,5.45,8.41,12.63,14.29,15.28,4.37,2,15.14-.33,16.71-3.7C506.2,264,512.21,245.74,517.89,230.64ZM243.94,86.12H238c2.21-6.77,4.35-13.57,6.73-20.28.36-1,1.9-1.58,2.89-2.36-.81-.92-1.49-2.43-2.45-2.65-7.16-1.59-14.52-2.44-21.55-4.47C216.15,54.19,207.1,46.72,202,49,179,59.18,155.7,70.11,135.4,84.78c-8.86,6.41-10.79,22.41-15.86,34.05,8.46-.29,17-.07,25.36-1,11.21-1.22,22.3-3.49,33.48-5,11-1.47,30,.4,31.73-4.29,7.54-20.33,18.58-5.06,27.85-6,4.75-.48,9.18-4.77,13.56-7.63.86-.57,1.45-3.45,1.1-3.67C249.16,89,245.47,87,243.94,86.12ZM502,293.85,478,312.23c7.4-2.19,14.94-4,22.12-6.74,3.37-1.29,6.06-4.38,9.05-6.66C506.88,297.25,504.62,295.67,502,293.85Z"/><path class="cls-100" d="M205.29,24.09c-8.49,8.6-16.22,18.19-25.74,25.45-6.57,5-15.43,7.4-23.62,9.68-3.4,1-7.74-1.42-11.65-2.29l34.06-23q8-6,15.94-12.08Z"/><path class="cls-101" d="M141.3,57c.32,1,.65,1.94,1,2.91q-.51,3-1,6a44.31,44.31,0,0,0-4.06,2.25Q97.23,96,57.33,123.91l-.06-5c21.18-13.74,42.44-27.36,63.48-41.33,4.71-3.13,8.84-7.26,12.8-11.35,1.6-1.66,2-4.45,3-6.72-2.52-.87-5.65-1.1-7.4-2.78-1.95-1.88-2.63-5.07-3.87-7.68a21.45,21.45,0,0,1,11,3.78,19.34,19.34,0,0,1,2.5,2.1A4.2,4.2,0,0,1,141.3,57c2.66,6.53-20.66,22.07-40.43,35.11-7.81,5.15-19.25,12.44-33.63,20.65C52,124.39,12.06,155.14,7.45,160.91c-1.13,1.42-3.59,5.67-3.24,6a1.27,1.27,0,0,0,.39.19,1.42,1.42,0,0,0,.44.06c1.82,0,1.33,19.31,1.33,19.31-.22,8.56.51,8.74.73,19.31.64,30.5-4.95,52.42-1.95,53.22,2.29.6,9.39-11.08,9.6-23.71.08-4.94-1-5.21-1.67-14.19-.6-7.91.07-9.63.15-21.15.11-15.29-1-21.32,1.31-22.12,1.79-.63,4.46,2.31,15.14,8.65.83.5,2.12,1.24,3.16.76,1.85-.86,1.14-4.79,1.5-10.23.58-8.63,3-7.84,2.48-13.12-.25-2.63-1.77-6.59-4.83-14.53-.35-.9-.23-.57-1.18-3-3-7.8-3.11-8.24-3.57-8.47-4-2-22.22,20.46-19.79,23.07C11.31,165.07,67.59,119.65,141.3,57Z"/><path class="cls-102" d="M281.31,12.91,256.3,24l-4-3.09,9-10,20,.11C281.25,11.63,281.28,12.27,281.31,12.91Z"/><path class="cls-103" d="M252.27,20.91l4,3.09-11.07-.15-15-1,7-9,10.05,7.08Z"/><path class="cls-104" d="M237.25,13.86l-7,9L212.4,22l-.33-8.78c3.57.83,7.2,2.53,10.66,2.22,2.81-.25,5.25-3.63,8.15-4.25C232.72,10.77,235.1,12.88,237.25,13.86Z"/><path class="cls-105" d="M212.4,22l17.84.85,15,1-33-1A2.2,2.2,0,0,1,212.4,22Z"/><path class="cls-106" d="M301.36,26l-10.34-1,7.26-13,11-1q-.49,3-1,5.94Z"/><path class="cls-107" d="M298.28,11.94l-7.26,13-9.71-12c0-.64-.06-1.28-.08-1.91l5.93-.05Z"/><path class="cls-108" d="M387.22,25.83c-3.71,2.68-7.12,6.31-11.27,7.68-2.24.75-6.17-1.85-8.56-3.87-1.67-1.41-1.4-5.53-3.07-6.42-3.34-1.77-7.41-2.16-11.19-3.12l-4-4.36a1.32,1.32,0,0,1,.16-.85Z"/><path class="cls-109" d="M339.28,20.85l-4-1.51-12,4.55-7-7,17.08-7Q336.28,15.38,339.28,20.85Z"/><path class="cls-110" d="M316.21,16.9l7,7L317.42,30l-16.06-4,7-9Z"/><path class="cls-111" d="M57.27,118.88C112.05,84.12,136,68.93,137.18,68.12c.07-.05.45-.31,1-.62,1-.58,2.07-1.07,3.08-1.63C132.43,73.54,123,80.57,114.92,89c-23.22,24.32-45.86,49.2-68.74,73.86,3.44-8.35,7.28-16.56,10.12-25.11.56-1.67.76-6.78.93-12.89C57.29,122.39,57.29,120.34,57.27,118.88Z"/><path class="cls-112" d="M30.27,280.89l-.06,7c-8,5.08-20.24,9.47-3.14,18.75l-.76,1.24Q16.2,287.35,6.08,266.82c0-1.28.07-2.56.1-3.83l4-6,1.06-.08,18,21a3.69,3.69,0,0,0,.09,1Z"/><path class="cls-113" d="M6.08,266.82q10.12,20.52,20.23,41.05c-.37,2-.75,4-1.12,6l-9.92,7.06q-3-8-6-16Q7.69,285.85,6.08,266.82Z"/><path class="cls-114" d="M30.27,280.89l-.92-2c1.24-3,3.57-6.1,3.53-9.13-.31-24.67-1.06-49.33-1.68-74q3-5.89,6-11.79l9-21.12C69.06,138.19,91.7,113.31,114.92,89c8-8.42,17.51-15.45,26.32-23.12q.52-3,1-6c.67,2.66,1.35,5.33,2,8-25.9,26.06-51.88,52-77.68,78.2-28.45,28.84-34.52,63.73-25.4,101.7,2.09,8.7,9.07,16.28,14.06,24.21,7.62,12.12,13.85,25.72,23.72,35.65,8.84,8.89,23.83,11.86,32.11,21,4.31,4.78-.59,17.37-.19,26.38a37.44,37.44,0,0,0,4.47,16.38c1.18,2.07,6.88,1.8,10.56,2.1,1.44.12,3-1.12,4.49-1.74.64,4.3,1.5,8.59,1.72,12.91,0,.84-2.35,1.9-3.72,2.69-2.11,1.22-4.37,2.19-6.39,3.52-.4.27-.27,2.39,0,2.51a57.72,57.72,0,0,0,6.87,2c1.94.48,3.92.81,5.89,1.2-.85,1.31-2.73,3.2-2.37,3.84a66.82,66.82,0,0,0,7.39,11c1.7,2,4.42,3.1,6.76,4.48a8.56,8.56,0,0,0,1.52-2.18c3.53-8.36,7.16-16.68,10.41-25.15,1.28-3.33,1.69-7,2.5-10.52a60.64,60.64,0,0,1-6.61-.09c-4.77-.55-9.52-1.31-14.28-2,3.23-.36,6.46-.63,9.66-1.15.65-.1,1.7-1.21,1.62-1.69-2-11.64-4.11-23.25-6.14-34.88-.48-2.71-1.47-5.64-.89-8.17,1.07-4.65,3.49-9,4.68-13.63,1.66-6.48,2.19-13.28,4.16-19.64,2.47-8,7.28-15.44,8.54-23.52s-.81-16.8-.52-25.2c0-.64,7.4-.52,11.05-1.72,2.26-.74,5.84-3.72,5.56-5-2.76-12.19-2.41-21.67,14-20.48-3.3-8.52,6.65-8.69,7-9.55,11.65-25.7,33.39-14,51.47-15.19a92,92,0,0,0,18-3.18c7.73-2.12,15.14-6.57,22.88-7.07,6-.39,12.32,3.69,18.46,5.89a11.18,11.18,0,0,1,4,2.23c.92.9,1.23,2.4,1.81,3.64,1.37-1.75,2.72-3.52,4.1-5.26,4-5,7.65-13.82,12-14.17,8.59-.68,18.25,1.9,26.21,5.74,12.25,5.9,23.83,13.44,34.89,21.41,4.55,3.28,6.58,9.85,10.52,14.24,5.62,6.26,13.05,11.12,17.73,17.94,9,13.15,17.71,26.77,24.47,41.16a53.34,53.34,0,0,1,4.63,27.34c-1.68,14.79-6.44,29.22-9.76,43.83-1.71,7.53-2.5,15.34-5.1,22.52-.63,1.77-8.77.49-9.82,2.51-2.24,4.28-1.07,10.29-3.19,14.68s-6.42,8-10.06,11.7c-5,5-11,9.18-15.23,14.75-3.82,5.06-5.83,11.49-8.41,17.41a11.44,11.44,0,0,0,3.9,2.17,25.58,25.58,0,0,0,5.28.34,66.14,66.14,0,0,1-1.9,9.59c-.12.36-3.95-.58-6.07-.78-1.33-.13-3.06-.49-3.9.17-.67.53-.84,3.06-.23,3.62,6.54,6.08,15.16,10.82,19.57,18.12,7.93,13.14,15.34,12.8,25.29,3.29,1.18-1.13,4.21-.15,5.67-1.17,5.91-4.15,11.57-8.66,17.08-13.32.11-.09-3.32-3.43-3.87-5.57-.42-1.62.84-3.94,1.89-5.61a21.12,21.12,0,0,1,4.93-5.73c5.72-4.25,11.39-8.73,17.68-12,3.19-1.66,7.64-.88,11.52-1.2a72.46,72.46,0,0,1-2.42-8.45c-.45-2.65-1.06-5.86,0-8,.66-1.29,4.75-.4,6.72-1.51,4.69-2.64,11.35-4.92,13.09-9.07,6-14.26,9.83-29.42,15.22-44,5.16-13.92,16.17-27.68,15.68-41.19-.65-18.08-10.88-35.64-14.82-53.9-1-4.79,8.66-11.32,8.66-17,0-10.16-3.87-20.28-5.75-30.49C513.53,167,490,130.51,459.27,97.89l20,20c26.15,32.65,42.08,69.6,47.14,111.23.43,3.59,4.65,7.14,4.2,10.31-.7,5-4.9,9.6-5.7,14.67-1.11,7-1.6,14.45-.28,21.31,3.79,19.7,15.51,40.73,11.58,58.45-7.54,34-21.87,66.92-37.13,98.48-7.76,16.05-21.3,32.08-36.42,41.15-23.9,14.35-51.28,23-77.27,33.78-11.11,4.62-22.86,7.84-33.53,13.26-7.77,3.94-13.63,11.84-21.51,15.31-5.38,2.36-12.83-.36-19.28.14-3.35.25-6.54,2.54-9.81,3.92l-8-3c-2.44,1.17-5.54,1.77-7.14,3.65-2.2,2.58-3.27,6.14-4.83,9.27-3.18-3-7.62-5.38-9.34-9-7.8-16.58-17.15-19.47-35-11.66-9.19,4-23.8-2.7-35.43-6.27-15.92-4.9-34.7-7.67-46.3-18-26.53-23.7-49.85-51.08-73.66-77.69C68.35,412.3,59,393.1,43.84,381.05c-30.67-24.32-7.75-53.87-11.86-80.5C31,294.06,30.82,287.45,30.27,280.89Zm285-71c-1.58.86-4.07,2.8-4.59,2.37-1.86-1.55-2.61-4.61-4.57-5.8-6.84-4.16-14.45-11.44-21-10.68-8.68,1-16.62,8.44-24.87,13.11q-17.94,2.18-35.88,4.38a7.76,7.76,0,0,0-1.7.63,11.52,11.52,0,0,0-.3-1.88c-.64-1.86-1.15-5.12-2.08-5.26-2.16-.31-5.61.15-6.63,1.62-3.88,5.57-6.71,11.87-10.58,17.44-1,1.46-5.56.56-6.42,2-4.51,7.47-8.35,15.35-12.42,23.08-2.53.06-7.14-.39-7.3.25-2.16,8.79-3.82,17.71-5.37,26.64-1.43,8.18-2.08,16.54-4,24.6-1.56,6.62-6.79,13.13-6.25,19.33,1,11.66,5.17,23,7.71,34.58,2.15,9.75,3.47,19.69,5.93,29.36.91,3.58,3.33,8.29,6.27,9.48,4.5,1.83,10.22.39,15.13,1.54,6.6,1.55-7.71-18.67,7.49-6.88.37.29,1.53-.64,2.29-.58,3,.25,7.05-.45,8.71,1.21,5.56,5.58,10.38,11.93,15.15,18.22.69.9-.76,4.53-.61,4.57a88,88,0,0,0,11.05,2.16c.23,0,.85-2,1.11-3.1a50.18,50.18,0,0,0,1.07-5.7c1.28-11.08,26.49-22.47,30.8-13.84,3.79,7.6,6.08,15.95,9.09,23.95a5.31,5.31,0,0,0,1.38,1.79c5.29-3.31,11.69-5.78,15.39-10.4,3.59-4.47,4.4-11.18,6.43-16.9-.43,3.58-1.71,7.31-1.14,10.73C307,416.08,307.28,433.79,330,421c1.81-1,2.3-4.63,4.1-5.37s4.6.26,6.79,1A114.77,114.77,0,0,1,357.09,423c.87.45-.4,5-.64,7.63-.11,1.21-.56,3.28-.12,3.5,1.63.82,4.55,2,5.25,1.33,10.89-10.78,22.4-21.12,31.95-33,11.09-13.81,21.59-28.4,30.08-43.9,5.81-10.58,4.18-27.1,12-34.38,32.31-30.08-8.8-46.66-12.1-69.79-1.7-11.94-18.41-21.62-27.93-32.68-1.57-1.82,0-6.73-1.61-8.06-5.83-4.74-12.41-8.55-18.71-12.72h0c-8.17-4.17-22.84-12.86-23.54-11.84-14,20.1-9.11-6-14.35-5.54-2.64.24-5.29.35-7.89.78a16.68,16.68,0,0,0,.13,3.62c.47,4.59,3.09,11,1,13.36C327,205.45,320.55,207.15,315.27,209.89Z"/><path class="cls-56" d="M31.2,195.76c.62,24.67,1.37,49.33,1.68,74,0,3-2.29,6.09-3.53,9.13a3.69,3.69,0,0,1-.09-1l0-21-8-14q3.47-14,6.94-28.05c-.39-2-.77-3.95-1.15-5.93Q29.14,202.37,31.2,195.76Z"/><path class="cls-112" d="M28.23,214.88q-3.46,14-6.94,28.05L8.12,256c3.81-6.33,7.52-12.71,11.53-18.91.78-1.2,2.72-1.63,4.13-2.42a48.09,48.09,0,0,0-3.48-6c-2.14-2.74-4.62-5.23-7-7.83Z"/><path class="cls-115" d="M8.12,256l13.17-13.1,8,14-18,0L10.2,257Z"/><path class="cls-116" d="M86.28,478.89q-1.47-5.5-3-11c0-.37,0-.75,0-1.12.58-6.66,4.13-16.7,1.15-19.32-7.52-6.62-18-9.91-27.25-14.53l-.88-.1-.15-.88,2.06-1.06c30.72-11.7,28.3,18.78,40.23,31.25C107,471,116.94,478.5,126,486.87c2,1.8,2.85,4.73,4.23,7.13Z"/><path class="cls-117" d="M205.26,532.88c-5.22-.21-10.76.62-15.58-.87-6.69-2.07-12.77-6-19.23-8.91-7.35-3.29-14.84-6.29-22.27-9.41,7.24,1.38,14.79,1.89,21.64,4.34C181.86,522.35,193.47,527.86,205.26,532.88Z"/><path class="cls-118" d="M25.19,313.83c.37-2,.75-4,1.12-6l.76-1.24C10,297.35,22.18,293,30.21,287.88l-5,53.93Q25.2,327.82,25.19,313.83Z"/><path class="cls-59" d="M58.27,430.88l-2.06,1.06-.89-.1q-1.57-9.93-3.14-19.88Z"/><path class="cls-119" d="M57.24,432.92c9.28,4.62,19.73,7.91,27.25,14.53,3,2.62-.57,12.66-1.15,19.32l-1.17-1.83c1-3.37,2.46-6.68,2.87-10.12.14-1.13-2.22-2.74-3.66-3.84C73.37,444.91,65.29,438.93,57.24,432.92Z"/><path class="cls-120" d="M57.24,432.92c8.05,6,16.13,12,24.14,18.06,1.44,1.1,3.8,2.71,3.66,3.84-.41,3.44-1.84,6.75-2.87,10.12L56.36,432.82Z"/><path class="cls-91" d="M440.28,483.9c49.59-6.38,67-41.17,75.29-84.54,1.66-8.73,5.73-17,8.69-25.48C518.43,394.56,511.43,415,507,436c-7,33.56-35.17,39.31-60.76,49h0l-6,0C440.27,484.56,440.27,484.23,440.28,483.9Z"/><path class="cls-71" d="M440.27,484.89l6,0c-10.54,3.66-15.74,9.36-8.19,20.41.68,1,.18,4.08-.72,4.63-1.71,1-4.1,1-6.24,1.32-4.6.6-9.21,1.1-13.82,1.64Z"/><path class="cls-121" d="M459.27,97.89C490,130.51,513.53,167,521.84,212c1.88,10.21,5.74,20.33,5.75,30.49,0,5.73-9.7,12.26-8.66,17,3.94,18.26,14.17,35.82,14.82,53.9.49,13.51-10.52,27.27-15.68,41.19-5.39,14.54-9.23,29.7-15.22,44-1.74,4.15-8.4,6.43-13.09,9.07-2,1.11-6.06.22-6.72,1.51-1.09,2.12-.48,5.33,0,8a72.46,72.46,0,0,0,2.42,8.45c-3.88.32-8.33-.46-11.52,1.2-6.29,3.25-12,7.73-17.68,12a21.12,21.12,0,0,0-4.93,5.73c-1.05,1.67-2.31,4-1.89,5.61.55,2.14,4,5.48,3.87,5.57-5.51,4.66-11.17,9.17-17.08,13.32-1.46,1-4.49,0-5.67,1.17-9.95,9.51-17.36,9.85-25.29-3.29-4.41-7.3-13-12-19.57-18.12-.61-.56-.44-3.09.23-3.62.84-.66,2.57-.3,3.9-.17,2.12.2,5.95,1.14,6.07.78a66.14,66.14,0,0,0,1.9-9.59,25.58,25.58,0,0,1-5.28-.34,11.44,11.44,0,0,1-3.9-2.17c2.58-5.92,4.59-12.35,8.41-17.41,4.21-5.57,10.23-9.74,15.23-14.75,3.64-3.66,7.9-7.22,10.06-11.7s.95-10.4,3.19-14.68c1-2,9.19-.74,9.82-2.51,2.6-7.18,3.39-15,5.1-22.52,3.32-14.61,8.08-29,9.76-43.83a53.34,53.34,0,0,0-4.63-27.34c-6.76-14.39-15.44-28-24.47-41.16-4.68-6.82-12.11-11.68-17.73-17.94-3.94-4.39-6-11-10.52-14.24-11.06-8-22.64-15.51-34.89-21.41-8-3.84-17.62-6.42-26.21-5.74-4.35.35-8,9.17-12,14.17-1.38,1.74-2.73,3.51-4.1,5.26-.58-1.24-.89-2.74-1.81-3.64a11.18,11.18,0,0,0-4-2.23c-6.14-2.2-12.45-6.28-18.46-5.89-7.74.5-15.15,5-22.88,7.07a92,92,0,0,1-18,3.18c-18.08,1.19-39.82-10.51-51.47,15.19-.39.86-10.34,1-7,9.55-16.45-1.19-16.8,8.29-14,20.48.28,1.24-3.3,4.22-5.56,5-3.65,1.2-11,1.08-11.05,1.72-.29,8.4,1.8,17,.52,25.2s-6.07,15.54-8.54,23.52c-2,6.36-2.5,13.16-4.16,19.64-1.19,4.64-3.61,9-4.68,13.63-.58,2.53.41,5.46.89,8.17,2,11.63,4.17,23.24,6.14,34.88.08.48-1,1.59-1.62,1.69-3.2.52-6.43.79-9.66,1.15,4.76.67,9.51,1.43,14.28,2a60.64,60.64,0,0,0,6.61.09c-.81,3.52-1.22,7.19-2.5,10.52-3.25,8.47-6.88,16.79-10.41,25.15a8.56,8.56,0,0,1-1.52,2.18c-2.34-1.38-5.06-2.49-6.76-4.48a66.82,66.82,0,0,1-7.39-11c-.36-.64,1.52-2.53,2.37-3.84-2-.39-3.95-.72-5.89-1.2a57.72,57.72,0,0,1-6.87-2c-.32-.12-.45-2.24,0-2.51,2-1.33,4.28-2.3,6.39-3.52,1.37-.79,3.76-1.85,3.72-2.69-.22-4.32-1.08-8.61-1.72-12.91-1.5.62-3.05,1.86-4.49,1.74-3.68-.3-9.38,0-10.56-2.1a37.44,37.44,0,0,1-4.47-16.38c-.4-9,4.5-21.6.19-26.38-8.28-9.18-23.27-12.15-32.11-21-9.87-9.93-16.1-23.53-23.72-35.65-5-7.93-12-15.51-14.06-24.21-9.12-38-3.05-72.86,25.4-101.7,25.8-26.16,51.78-52.14,77.68-78.2-.89,2.59-1,5.93-2.77,7.68-19.9,20.06-41,39.05-59.66,60.16-7.47,8.45-8.79,22-14.77,32.21-6.73,11.45-15.83,21.49-23.15,32.63C43,202,46,207.43,48.44,209c1.9,1.23,5.81-.64,8.83-1.14l9-24c9.63-5.41,19-11.52,29.17-15.54,1.67-.66,6.2,9.79,10.79,11.6,4.77,1.9,11.31-.06,16.9-1.2,1.54-.31,2.46-3.7,3.67-5.68,1.63,1.78,3.21,3.61,4.89,5.34,15.23,15.69-2.55,23.35-8.27,33.93a8.19,8.19,0,0,1-1.65,1.68c1.59,1.57,3.09,4.38,4.79,4.5,8.25.6,17.34,2.64,24.61,0,7.44-2.7,13.25-10.09,19.48-15.75a30.38,30.38,0,0,0,5.76-7.93c.86-1.57.83-3.73.83-5.62,0-1.18-1.29-2.65-.91-3.46a3.75,3.75,0,0,1,3.21-1.7,32.42,32.42,0,0,1,6.71,3c1.42.76,2.58,2.05,4,2.67.56.23,1.63-.79,2.47-1.24a16.47,16.47,0,0,1-2.21-2.86c-.3-.59.11-1.53.19-2.31,1.85.22,3.82.13,5.53.73,3.44,1.21,6.75,2.8,10.11,4.23.74-3,1-6.21,2.39-8.83,1.1-2.07,3.63-3.38,5.52-5,.51,1.55.69,4.21,1.57,4.47,7.7,2.25,15.42,4.8,23.33,5.85,8.89,1.18,18.09,1.92,26.94.93,7-.79,15.11-8.14,20.31-6.17,14.38,5.43,9.07-.37,5.11-6.82,9.08.33,18.17,1,27.23.76,2.62-.08,5.25-2.85,7.69-4.65,2.29-1.7,4.38-5.35,6.48-5.3a31.8,31.8,0,0,1,13.89,3.39,277.31,277.31,0,0,1,23.74,15c8.77,6,17.83,11.68,25.8,18.6,11.61,10.08,22.53,21,33.35,31.92,2.07,2.1,1.52,6.73,3.54,9,4.72,5.23,11.88,8.84,15.06,14.72,4.35,8.05,5.72,17.66,8.83,26.44.7,2,3.21,3.45,5.13,4.81,3.38,2.4,6.95,4.54,10.44,6.79-2.31,3.22-5,6.25-6.85,9.71-5.5,10.13-10.7,20.42-15.95,30.68-.14.29.68,1.5.86,1.46a36.62,36.62,0,0,0,5.82-1.7,38.65,38.65,0,0,0,4.65-2.69c0,2.1-.61,4.44.13,6.23a126.68,126.68,0,0,0,8.5,17.35c.24.4,6.22-1.94,8.87-3.9s4-5,6.16-7.35c5.13-5.48,10.69-10.58,15.48-16.33,1.36-1.64.49-5,1-7.54.31-1.43,1.16-3.61,2.18-3.88,6-1.58,12.11-2.67,18.16-4,.28-.07.52-1.19.46-1.79-.75-7.37,1.18-18.49-2.85-21.43-14.83-10.81-9.59-21.95-6-35.46,3.67-13.78,6.72-29.18,4.31-42.86-11.26-64.1-48.59-110.73-103.9-142.8C402,61,385.85,61.9,372.23,57.59c-8.55-2.71-16.11-8.54-24.19-12.83-1-.52-2.46-.12-3.7-.14a8,8,0,0,0,.05,1.77c.5,2.07,1.08,4.13,1.63,6.19-1-.13-2.38.11-2.89-.45-2.64-2.89-5.07-6-7.55-9-2.78-3.4-5.53-6.82-8.3-10.23L336.37,23c.85,3.06.71,7.51,2.72,8.93,12.24,8.71,24.26,22.07,37.7,23.9,30.43,4.14,55.35,15.68,76.3,37.36C454.88,95,457.2,96.32,459.27,97.89Zm-341.07,127c-.47,1.08-3,4.76-3.57,8.73-.69,4.86.39,9.95.32,14.94,0,.63-2.29,1.22-3.52,1.83,1.19,1.27,2.87,3.83,3.48,3.6a87.68,87.68,0,0,0,11.78-5.73c2.1-1.2,3.68-3.56,5.86-4.26,1.44-.46,3.93.69,5.2,1.91,1,.92.29,3.44,1.19,4.59.72.94,2.7.91,4.12,1.31.67-7.82,4.66-18.39,1.09-22.71S129.44,226.34,118.2,224.89Z"/><path class="cls-32" d="M356.29,33.9c5.45.34,11.45-.6,16.18,1.42,4.31,1.84,7.24,6.91,10.78,10.56Z"/><path class="cls-122" d="M336.37,23l-9.09,9.94L317.42,30l5.83-6.08,12-4.55C335.63,20.54,336,21.75,336.37,23Z"/><path class="cls-123" d="M517.89,230.64c-5.68,15.1-11.69,33.34-19.75,50.61-1.57,3.37-12.34,5.67-16.71,3.7-5.88-2.65-9.79-9.83-14.29-15.28a26,26,0,0,1-4.54-7.7c-4.16-11.83-8-23.77-12-35.68-1.22-3.67-1.47-9.56-3.79-10.53-3.28-1.36-8.51,0-12.13,1.79-12,5.9-14.81,4.9-14.09-10.92.85-18.32-8.95-22.91-24.17-26.73-4.71-1.18-6.14-13.89-9.88-20.88-3.83-7.15-7.16-16.14-13.4-20.05-9.42-5.92-21.17-8.13-31.93-11.91-1,5.14-1.66,10.34-3,15.39-.67,2.58-2.43,4.87-3.7,7.29-6.09-4.45-12.62-8.47-17.86-13.78-.93-.94,3.58-7.19,5.51-11,.84-1.68,2.44-3.69,2.08-5.14-2.34-9.43-5.17-18.74-7.69-28.13-.14-.55,1.07-2.1,1.61-2.08,11.29.4,22.6.66,33.85,1.6,6.13.51,12.14,2.34,18.26,3.2.72.11,2.68-2.31,2.5-3.27C372.5,89.4,370.9,88,370,86.3c-1-1.82-1.82-3.75-2.72-5.63,2,.78,4.11,2.3,6.11,2.21,9.33-.44,18.88-3,27.89-1.65,14.24,2.08,31.25,2.66,41.59,10.84C486,126.16,509.46,172.3,517.89,230.64Z"/><path class="cls-124" d="M243.94,86.12c1.53.87,5.22,2.85,8.68,5.16.35.22-.24,3.1-1.1,3.67-4.38,2.86-8.81,7.15-13.56,7.63-9.27.93-20.31-14.34-27.85,6-1.75,4.69-20.73,2.82-31.73,4.29-11.18,1.5-22.27,3.77-33.48,5-8.39.91-16.9.69-25.36,1,5.07-11.64,7-27.64,15.86-34C155.7,70.11,179,59.18,202,49c5.08-2.25,14.13,5.22,21.6,7.39,7,2,14.39,2.88,21.55,4.47,1,.22,1.64,1.73,2.45,2.65-1,.78-2.53,1.36-2.89,2.36-2.38,6.71-4.52,13.51-6.73,20.28Z"/><path class="cls-123" d="M502,293.85c2.58,1.82,4.84,3.4,7.1,5-3,2.28-5.68,5.37-9.05,6.66-7.18,2.74-14.72,4.55-22.12,6.74Z"/><path class="cls-125" d="M66.27,183.89l-9,24L65.16,177c1,.76,2.71,1.54,2.7,2.28C67.82,180.81,66.86,182.35,66.27,183.89Z"/><path class="cls-126" d="M11.26,256.89l18,0,0,21Z"/><path class="cls-127" d="M375.27,200.89c6.3,4.17,12.88,8,18.71,12.72,1.63,1.33,0,6.24,1.61,8.06,9.52,11.06,26.23,20.74,27.93,32.68,3.3,23.13,44.41,39.71,12.1,69.79-7.83,7.28-6.2,23.8-12,34.38-8.49,15.5-19,30.09-30.08,43.9-9.55,11.9-21.06,22.24-31.95,33-.7.69-3.62-.51-5.25-1.33-.44-.22,0-2.29.12-3.5.24-2.65,1.51-7.18.64-7.63a114.77,114.77,0,0,0-16.23-6.35c-2.19-.74-5-1.76-6.79-1S331.78,420,330,421c-22.69,12.79-23-4.92-25.35-19.1-.57-3.42.71-7.15,1.14-10.73-2,5.72-2.84,12.43-6.43,16.9-3.7,4.62-10.1,7.09-15.39,10.4a5.31,5.31,0,0,1-1.38-1.79c-3-8-5.3-16.35-9.09-23.95-4.31-8.63-29.52,2.76-30.8,13.84a50.18,50.18,0,0,1-1.07,5.7c-.26,1.11-.88,3.13-1.11,3.1a88,88,0,0,1-11.05-2.16c-.15,0,1.3-3.67.61-4.57-4.77-6.29-9.59-12.64-15.15-18.22-1.66-1.66-5.73-1-8.71-1.21-.76-.06-1.92.87-2.29.58-15.2-11.79-.89,8.43-7.49,6.88-4.91-1.15-10.63.29-15.13-1.54-2.94-1.19-5.36-5.9-6.27-9.48-2.46-9.67-3.78-19.61-5.93-29.36-2.54-11.56-6.7-22.92-7.71-34.58-.54-6.2,4.69-12.71,6.25-19.33,1.9-8.06,2.55-16.42,4-24.6,1.55-8.93,3.21-17.85,5.37-26.64.16-.64,4.77-.19,7.3-.25-3.6,7-7.48,13.81-10.44,21-.4,1,5.13,3.5,5.78,5.89,1.44,5.39,3.68,12.06,1.72,16.52-3.27,7.48-21.05,8.3-9.92,22.61.43.54-.66,2.1-.69,3.19-.05,2.19.12,4.38.24,6.57.55,10.35,1,20.72,1.7,31.06.47,6.61.4,13.52,2.54,19.6,1,2.76,6.63,5.1,10.34,5.4,10.75.86,23.58-12.32,31.73,5.12,0,.34,0,.67,0,1,7.31,4.77,14.36,10.07,22.14,13.88,1.53.75,6-4.1,8.88-6.55,4.39-3.69,8.65-7.54,13-11.33,1.18-2.3,3-4.5,3.42-6.94,1.17-6.29,1.76-12.7,2.58-19.06l1-1c2.19-2.28,4.09-5,6.67-6.69a14.35,14.35,0,0,1,8-2.45c2.44.15,4.77,2.19,7.14,3.4l-2.83,4.73c-1-2.17-1.54-5.08-3.25-6.26-1.24-.85-5.4-.06-6,1.11-4,8.14-7.87,16.41-10.63,25-.88,2.77,1.75,6.67,2.78,10.05,1.12-.52,2.85-.75,3.29-1.63,4.7-9.36,9.21-18.82,13.77-28.26-2.07,5.93-5.36,11.75-5.91,17.82-.83,9.12,0,18.43.89,27.6.08.9,6.89,2.7,7.61,1.77,7.17-9.23,13.73-18.93,20.41-28.54,1.63-2.35,3.07-4.83,4.59-7.24,1.81,2,5.35,4.19,5.12,5.88-1.2,8.83-4.49,17.5-4.72,26.29-.1,4.26,4.9,8.65,7.6,13a16.92,16.92,0,0,1,1.77-2.54c3.59-3.62,7.25-7.17,10.88-10.74,2.37,2.46,4.36,5.51,7.16,7.27,8.75,5.48,20.59,16.75,26.11,14.29,9.76-4.36,16.36-16.77,23-26.66,2.6-3.87,1.75-10.06,2.48-15.19l1-1c4.7-5.85,9-12.08,14.25-17.38,2.72-2.73,7.12-3.8,10.76-5.62,2.37-1.08,6.25-1.61,6.9-3.35,4.92-13.2,10-26.44,13.35-40.08,1.53-6.24.64-13.92-1.6-20-3.95-10.82-9.76-21-14.86-31.36a14.23,14.23,0,0,0-2.35-3.14c-9.61-10.7-19-21.64-29-31.93-3.32-3.41-9.9-4.15-12.29-7.86C377.29,213.29,376.86,206.72,375.27,200.89Z"/><path class="cls-128" d="M217.27,387.89c-8.15-17.44-21-4.26-31.73-5.12-3.71-.3-9.38-2.64-10.34-5.4-2.14-6.08-2.07-13-2.54-19.6-.72-10.34-1.15-20.71-1.7-31.06-.12-2.19-.29-4.38-.24-6.57,0-1.09,1.12-2.65.69-3.19-11.13-14.31,6.65-15.13,9.92-22.61,2-4.46-.28-11.13-1.72-16.52-.65-2.39-6.18-4.93-5.78-5.89,3-7.23,6.84-14.07,10.44-21,4.07-7.73,7.91-15.61,12.42-23.08.86-1.43,5.41-.53,6.42-2,3.87-5.57,6.7-11.87,10.58-17.44,1-1.47,4.47-1.93,6.63-1.62.93.14,1.44,3.4,2.08,5.26a11.52,11.52,0,0,1,.3,1.88,7.76,7.76,0,0,1,1.7-.63q17.92-2.22,35.88-4.38c.28,2.11.63,6.08.84,6.07,16.16-.56,21,11.8,27.37,23,3.27,5.69,8.6,10.2,13,15.24,1.15-2.2,2.49-4.33,3.42-6.63,1.34-3.32,2.27-6.8,3.59-10.14,2.85-7.19,5.84-14.34,8.77-21.5,3.74-2.13,7.25-5.4,11.25-6.19,15.5-3,31.16-5.27,46.75-7.81h0c1.59,5.83,2,12.4,5.14,17.23,2.39,3.71,9,4.45,12.29,7.86,10,10.29,19.41,21.23,29,31.93a14.23,14.23,0,0,1,2.35,3.14c5.1,10.39,10.91,20.54,14.86,31.36,2.24,6.13,3.13,13.81,1.6,20-3.34,13.64-8.43,26.88-13.35,40.08-.65,1.74-4.53,2.27-6.9,3.35l6-8-4-8c4.36-12.57,13.38-25.75,11.82-37.54-1.7-12.9-13.22-24.48-20.37-36.68-5.29-9-9.1-19.37-16-26.91-8.13-8.91-18.75-15.6-28.59-22.84-1.36-1-6.22.93-6.39.45-1.06-3.11-1.26-6.52-1.78-9.83-.23-1.43-.54-2.86-.82-4.28L329.28,213.9c-.9,3.29-1.42,6.73-2.75,9.84-4.6,10.77-9.49,21.43-14.27,32.13l-2,1-21-6c-2.85-6.44-3.94-15.89-8.87-18.75-12.87-7.47-27-13.75-41.46-17-7.11-1.63-16.44,3.54-23.75,7.51-2,1.1-.21,9-.44,13.69a8.78,8.78,0,0,1-1.76,4.2c-.39.56-1.68.51-2.56.73a36.16,36.16,0,0,0-.44-4,20.61,20.61,0,0,0-1.13-3.07c-3.19,6.4-6.34,12.82-9.64,19.16-.35.68-1.55,1.08-2.42,1.28-4,.93-10.93.84-11.53,2.77-1.73,5.53-.69,11.88-1.14,17.88-.64,8.44.61,23-2.85,24.29-26.66,9.73,13.91,27.26-5,37.94-2.73,1.53.12,13.93,1.29,21.16,1.23,7.66,3.53,15.14,5.36,22.7l22.37-11.4,4,1Z"/><path class="cls-129" d="M317.27,214.89c-2.93,7.16-5.92,14.31-8.77,21.5-1.32,3.34-2.25,6.82-3.59,10.14-.93,2.3-2.27,4.43-3.42,6.63-4.4-5-9.73-9.55-13-15.24-6.41-11.16-11.21-23.52-27.37-23-.21,0-.56-4-.84-6.07,8.25-4.67,16.19-12.1,24.87-13.11,6.51-.76,14.12,6.52,21,10.68,2,1.19,2.71,4.25,4.57,5.8.52.43,3-1.51,4.59-2.37C315.94,211.56,316.61,213.22,317.27,214.89Z"/><path class="cls-127" d="M317.27,214.89c-.66-1.67-1.33-3.33-2-5,5.28-2.74,11.75-4.44,15.38-8.62,2.06-2.36-.56-8.77-1-13.36a16.68,16.68,0,0,1-.13-3.62c2.6-.43,5.25-.54,7.89-.78,5.24-.49.37,25.64,14.35,5.54.7-1,15.37,7.67,23.54,11.84-15.59,2.54-31.25,4.78-46.75,7.81C324.52,209.49,321,212.76,317.27,214.89Z"/><path class="cls-99" d="M118.2,224.89c11.24,1.45,22.29-.22,26,4.21s-.42,14.89-1.09,22.71c-1.42-.4-3.4-.37-4.12-1.31-.9-1.15-.23-3.67-1.19-4.59-1.27-1.22-3.76-2.37-5.2-1.91-2.18.7-3.76,3.06-5.86,4.26A87.68,87.68,0,0,1,114.91,254c-.61.23-2.29-2.33-3.48-3.6,1.23-.61,3.52-1.2,3.52-1.83.07-5-1-10.08-.32-14.94C115.2,229.65,117.73,226,118.2,224.89Z"/><path class="cls-130" d="M205.27,369.89l-22.37,11.4c-1.83-7.56-4.13-15-5.36-22.7-1.17-7.23-4-19.63-1.29-21.16,18.95-10.68-21.62-28.21,5-37.94,3.46-1.26,2.21-15.85,2.85-24.29.45-6-.59-12.35,1.14-17.88.6-1.93,7.52-1.84,11.53-2.77.87-.2,2.07-.6,2.42-1.28,3.3-6.34,6.45-12.76,9.64-19.16a20.61,20.61,0,0,1,1.13,3.07,36.16,36.16,0,0,1,.44,4c.88-.22,2.17-.17,2.56-.73a8.78,8.78,0,0,0,1.76-4.2c.23-4.74-1.57-12.59.44-13.69,7.31-4,16.64-9.14,23.75-7.51,14.44,3.3,28.59,9.58,41.46,17,4.93,2.86,6,12.31,8.87,18.75-5.71-21.53-22.69-21.57-40-21l-5.19-1.52a26.4,26.4,0,0,0,2.3,4.42c1.68,2.2,3.65,4.17,5.5,6.24-3.39.51-6.79.93-10.16,1.58a21.65,21.65,0,0,0-5.38,1.78c-.66.32-.85,1.58-1.25,2.42,1.26,0,2.64-.35,3.76.05,3.47,1.21,6.85,2.71,10.26,4.1-.41.7-.89,2-1.24,2a105.24,105.24,0,0,1-12.79-1.65c-1.66-.36-3-2.27-4.62-3-.29-.12-2.17,2.07-2.34,3.32-.26,1.87.36,3.86.6,5.79-2.9-1.41-5.68-3.23-8.72-4.15a78.76,78.76,0,0,0-13.36-2.64c-.35,0-.87,3.77-1.76,5.56-4.38,8.81-8.95,17.52-13.36,26.31-.91,1.81-2.55,4.41-1.91,5.64,2.31,4.43,5.83,8.25,8,12.74.52,1.07-2.49,3.89-4,5.81a1.69,1.69,0,0,1-1.64.12,5.33,5.33,0,0,1-1.24-2.49,47.06,47.06,0,0,1-.2-5.05c-1,.78-2.61,1.42-2.82,2.38-.65,2.94-1.83,6.41-.88,8.95,4.31,11.43,9.29,22.62,13.89,34,0,.05-2.65.68-3,1.5-1.8,4.17-3.35,8.46-4.75,12.78a2.94,2.94,0,0,0,1.21,2.64c1.14.38,3,.46,3.75-.23,4.67-4.3,9.08-8.88,13.67-13.26a2.72,2.72,0,0,1,2.53-.48,8.25,8.25,0,0,1,2.12,3c1,1.95,1.73,4,2.59,6,2.12-1.61,4.2-3.29,6.39-4.81,4.52-3.15,9-6.39,13.79-9.08.5-.28,2.92,2.85,4.45,4.4,8.27-10.71,15.65-11.34,21.81,1.92l-1.08,4.77,9.1-2.76-5,9-1,1c-1.65,1.59-3.42,3.07-4.9,4.81a22.16,22.16,0,0,0-2.22,4c-1.94-1.43-4.19-2.6-5.69-4.4-.73-.87-.34-3,0-4.4,1.44-5.81,3.19-11.54,4.42-17.38.11-.53-3.72-2.59-3.9-2.37-4.4,5.12-8.89,10.24-12.56,15.88-1.41,2.18-.84,5.64-1.18,8.52.81-.15,2-.71,2.36-.37.63.57.76,1.7,1.1,2.6-2.26.06-4.53-.05-6.76.21C227.06,367.22,216.17,368.57,205.27,369.89Z"/><path class="cls-131" d="M268.27,357.89l5-9c4.52-8.58,3.88-23.93,21-16l7.74-6.22c1.55,2.62,3.4,5.1,4.56,7.88,1.53,3.66,2.51,7.56,3.72,11.35v2c2.23,6.27,5,12.41,6.53,18.85,1.61,6.92,1.76,14.17,3,21.19.52,2.93,2.55,8.14,3.36,8a31.5,31.5,0,0,0,11.4-3.95c12-6.84,23.82-14.05,35.7-21.11l1,0c3.26-2.06,6.72-3.88,9.63-6.35.67-.57-.56-3.38-.92-5.16,1.45,0,4-.3,4.17.14,1,3.1,2.1,6.4,1.94,9.57-.31,6-1.45,11.93-2.25,17.9l10.46-7.08c-.73,5.13.12,11.32-2.48,15.19-6.65,9.89-13.25,22.3-23,26.66-5.52,2.46-17.36-8.81-26.11-14.29-2.8-1.76-4.79-4.81-7.16-7.27-3.63,3.57-7.29,7.12-10.88,10.74a16.92,16.92,0,0,0-1.77,2.54c-2.7-4.33-7.7-8.72-7.6-13,.23-8.79,3.52-17.46,4.72-26.29.23-1.69-3.31-3.91-5.12-5.88-1.52,2.41-3,4.89-4.59,7.24-6.68,9.61-13.24,19.31-20.41,28.54-.72.93-7.53-.87-7.61-1.77-.85-9.17-1.72-18.48-.89-27.6.55-6.07,3.84-11.89,5.91-17.82v0l2.83-4.73c-2.37-1.21-4.7-3.25-7.14-3.4a14.35,14.35,0,0,0-8,2.45C272.36,352.89,270.46,355.61,268.27,357.89Z"/><path class="cls-131" d="M205.27,369.89c10.9-1.32,21.79-2.67,32.69-3.93,2.23-.26,4.5-.15,6.76-.21-.34-.9-.47-2-1.1-2.6-.37-.34-1.55.22-2.36.37.34-2.88-.23-6.34,1.18-8.52,3.67-5.64,8.16-10.76,12.56-15.88.18-.22,4,1.84,3.9,2.37-1.23,5.84-3,11.57-4.42,17.38-.36,1.43-.75,3.53,0,4.4,1.5,1.8,3.75,3,5.69,4.4a22.16,22.16,0,0,1,2.22-4c1.48-1.74,3.25-3.22,4.9-4.81-.82,6.36-1.41,12.77-2.58,19.06-.46,2.44-2.24,4.64-3.42,6.94l-12,2c-.85-5.06-.27-11.24-3.06-14.79-1.8-2.29-8.52-.9-13-.73-.87,0-1.81,3.15-2.47,3.06-7.18-1-14.31-2.3-21.45-3.54Z"/><path class="cls-130" d="M209.27,370.89c7.14,1.24,14.27,2.57,21.45,3.54.66.09,1.6-3,2.47-3.06,4.5-.17,11.22-1.56,13,.73,2.79,3.55,2.21,9.73,3.06,14.79l-32,2c0-.33,0-.66,0-1Q213.27,379.4,209.27,370.89Z"/><path class="cls-132" d="M394.27,379.89,383.81,387c.8-6,1.94-11.91,2.25-17.9.16-3.17-1-6.47-1.94-9.57-.13-.44-2.72-.11-4.17-.14.36,1.78,1.59,4.59.92,5.16-2.91,2.47-6.37,4.29-9.63,6.35,2.05-3.36,4.43-6.58,6-10.15.89-2-.12-4.89.84-6.83.69-1.39,4.26-3,4.76-2.54,2.07,1.89,3.21,4.78,5.18,6.83,3.91,4.07,8.15,7.83,12.25,11.72l-5,9Z"/><path class="cls-114" d="M287.27,356.9c-4.56,9.44-9.07,18.9-13.77,28.26-.44.88-2.17,1.11-3.29,1.63-1-3.38-3.66-7.28-2.78-10.05,2.76-8.6,6.65-16.87,10.63-25,.57-1.17,4.73-2,6-1.11,1.71,1.18,2.22,4.09,3.25,6.26Z"/><path class="cls-128" d="M217.28,388.89l32-2,12-2c-4.32,3.79-8.58,7.64-13,11.33-2.93,2.45-7.35,7.3-8.88,6.55C231.64,399,224.59,393.66,217.28,388.89Z"/><path class="cls-131" d="M395.27,378.89l5-9c.32,0,.64,0,1,0l25-22-6,8c-3.64,1.82-8,2.89-10.76,5.62C404.27,366.81,400,373,395.27,378.89Z"/><path class="cls-133" d="M401.24,369.88c-.32,0-.64,0-1,0-4.1-3.89-8.34-7.65-12.25-11.72-2-2.05-3.11-4.94-5.18-6.83-.5-.45-4.07,1.15-4.76,2.54-1,1.94.05,4.82-.84,6.83-1.58,3.57-4,6.79-6,10.15l-1,0c-3.72-.79-7.41-1.94-11.18-2.26-4.21-.36-8.5,0-12.75.08a13.9,13.9,0,0,0,.42,2.84c.84,2.38,3.24,5.77,2.45,6.81-1.44,1.91-5.4,3.93-7.12,3.18-3.53-1.55-6.63-4.58-9.29-7.55-7.67-8.56-15-17.39-22.53-26.11,0-.66,0-1.32,0-2,.91-8.85,1.55-17.74,2.83-26.54.51-3.47,3.83-6.87,3.51-10.08-1.7-17.5-4.15-34.93-6.33-52.38l2-1q3-9,6-18c11-1.43,18.48-27.57,32.89-4.63,1-.78,2.47-2.45,3-2.19a178.31,178.31,0,0,1,16.54,8.41c.78.45.29,3.26.19,5-.08,1.25-1.05,3.3-.65,3.58,1.17.8,3.32.42,4.22,1.34,6.23,6.38,12.26,13,18.29,19.53.56.62.55,1.72,1,2.5,1.11,2,2.68,3.85,3.39,6,.61,1.84-.55,4.83.51,5.88,6.19,6.14,12.92,11.73,19.19,17.79,2.18,2.11,5.28,5.23,5,7.56a190.59,190.59,0,0,1-5,25.85c-1.26,5-3.69,9.63-5.6,14.42Zm-77.75-79.54c2.19,3.18,5,5.44,4.61,7-1.16,5.08-4.21,9.76-5.13,14.85-1.17,6.51-3.71,15-.8,19.53,5.67,8.77,14.63,15.46,22.51,22.7,1.22,1.12,4,.88,6,.72,1.42-.12,3.21-2.07,4-1.64a68.87,68.87,0,0,1,8.14,5.56,16.6,16.6,0,0,1-2.25,2.47c-1.44,1.07-3.05,1.93-4.58,2.88,1.69.44,4.52,1.72,4.89,1.2a124.47,124.47,0,0,0,8-12.84c.12-.22-1.6-1.82-2.68-2.3-5.31-2.38-10.69-4.6-16-6.88,3.12-4.43,6.21-8.88,9.36-13.28,1.14-1.6,2.43-3.09,3.65-4.64-.85-.42-1.75-1.26-2.55-1.17a12.9,12.9,0,0,0-3.48,1.42c1-2.68,1.88-5.37,2.9-8,.41-1.07,1.5-2,1.52-3.06.1-7-.09-14.09.23-21.12,0-.36,4-.2,5.77-1,1-.41,2.16-3,1.8-3.43-5.27-6.86-10.2-14.16-16.43-20.08-5.2-4.94-12.51-12.06-17.94-11.32-7.63,1-30.15.15-10.83,19.32.59.59-4.49,7.31-7.37,10.81-1.55,1.88-6,3.48-5.76,4.38.81,3.27,3,6.19,4.72,9.25a53.58,53.58,0,0,1,2.62-6.77C319,293.67,320.52,292.91,323.49,290.34Z"/><path class="cls-134" d="M411.27,348.88c1.91-4.79,4.34-9.46,5.6-14.42a190.59,190.59,0,0,0,5-25.85c.26-2.33-2.84-5.45-5-7.56-6.27-6.06-13-11.65-19.19-17.79-1.06-1.05.1-4-.51-5.88-.71-2.14-2.28-4-3.39-6-.44-.78-.43-1.88-1-2.5-6-6.57-12.06-13.15-18.29-19.53-.9-.92-3.05-.54-4.22-1.34-.4-.28.57-2.33.65-3.58.1-1.71.59-4.52-.19-5a178.31,178.31,0,0,0-16.54-8.41c-.56-.26-2,1.41-3,2.19-14.41-22.94-21.91,3.2-32.89,4.63q5.49-12,11-24l30.87-11.63c.28,1.42.59,2.85.82,4.28.52,3.31.72,6.72,1.78,9.83.17.48,5-1.45,6.39-.45,9.84,7.24,20.46,13.93,28.59,22.84,6.89,7.54,10.7,17.87,16,26.91,7.15,12.2,18.67,23.78,20.37,36.68,1.56,11.79-7.46,25-11.82,37.54Z"/><path class="cls-135" d="M310.29,256.9c2.18,17.45,4.63,34.88,6.33,52.38.32,3.21-3,6.61-3.51,10.08-1.28,8.8-1.92,17.69-2.83,26.54-1.21-3.79-2.19-7.69-3.72-11.35-1.16-2.78-3-5.26-4.56-7.88l-7.74,6.22-3-23c-.33-1-.66-2-1-3,2.54-17.63,13.12-35.35-.07-52.85-5-6.58-9.53-14.53-16.26-18.44-7-4.06-16.35-4-24.67-5.71,17.31-.57,34.29-.53,40,21Z"/><path class="cls-135" d="M329.28,213.9q-5.5,12-11,24-3,9-6,18c4.78-10.7,9.67-21.36,14.27-32.13C327.86,220.63,328.38,217.19,329.28,213.9Z"/><path class="cls-132" d="M411.27,348.88l11-9c1.34,2.66,2.67,5.33,4,8l-25,22Z"/><path class="cls-136" d="M249.28,229.89c8.32,1.73,17.7,1.65,24.67,5.71,6.73,3.91,11.3,11.86,16.26,18.44,13.19,17.5,2.61,35.22.07,52.85.5-6.86,1-13.72,1.51-20.58.15-1.89.49-3.77.73-5.66a39.24,39.24,0,0,1-5.63.07,33.22,33.22,0,0,1-5.05-1.45c.48-1.58,1.42-3.17,1.36-4.73-.25-6.86.74-14.38-1.89-20.23-1.23-2.72-9.8-1.86-14.85-3.31-1.09-.31-1.34-3.57-2-5.48-2.34,2.24-5.3,4.11-6.92,6.78-5.5,9.09-10.42,18.53-15.95,27.6-.54.89-3.94-.32-5.77.24-1.39.43-3.55,2.34-3.39,3.23,1.17,6.46,2.87,12.82,4.25,19.25a3.82,3.82,0,0,1-2.22,1.06c-5.8.17-11.71-.49-17.38.41-10.92,1.74-22.05,3.79-9,18.27,2.13,2.36.59,8,.74,12.17-2.43-1.32-4.75-3-7.33-3.83-1.91-.62-4.16-.13-6.26-.14.78,1.51,1.25,4,2.41,4.36,4.61,1.51,9.43,3.22,14.2,3.31,11.25.22,22.53-.43,33.79-.77.27,0,.52-.41.8-.58l12.89-7.73q3,8.87,6,17.72l0,0c-6.16-13.26-13.54-12.63-21.81-1.92-1.53-1.55-3.95-4.68-4.45-4.4-4.79,2.69-9.27,5.93-13.79,9.08-2.19,1.52-4.27,3.2-6.39,4.81-.86-2-1.64-4-2.59-6a8.25,8.25,0,0,0-2.12-3,2.72,2.72,0,0,0-2.53.48c-4.59,4.38-9,9-13.67,13.26-.74.69-2.61.61-3.75.23a2.94,2.94,0,0,1-1.21-2.64c1.4-4.32,3-8.61,4.75-12.78.35-.82,3-1.45,3-1.5-4.6-11.34-9.58-22.53-13.89-34-.95-2.54.23-6,.88-8.95.21-1,1.84-1.6,2.82-2.38a47.06,47.06,0,0,0,.2,5.05,5.33,5.33,0,0,0,1.24,2.49,1.69,1.69,0,0,0,1.64-.12c1.51-1.92,4.52-4.74,4-5.81-2.14-4.49-5.66-8.31-8-12.74-.64-1.23,1-3.83,1.91-5.64,4.41-8.79,9-17.5,13.36-26.31.89-1.79,1.41-5.6,1.76-5.56A78.76,78.76,0,0,1,220,251.28c3,.92,5.82,2.74,8.72,4.15-.24-1.93-.86-3.92-.6-5.79.17-1.25,2.05-3.44,2.34-3.32,1.67.73,3,2.64,4.62,3A105.24,105.24,0,0,0,247.88,251c.35,0,.83-1.31,1.24-2-3.41-1.39-6.79-2.89-10.26-4.1-1.12-.4-2.5-.06-3.76-.05.4-.84.59-2.1,1.25-2.42a21.65,21.65,0,0,1,5.38-1.78c3.37-.65,6.77-1.07,10.16-1.58-1.85-2.07-3.82-4-5.5-6.24a26.4,26.4,0,0,1-2.3-4.42Z"/><path class="cls-136" d="M291.26,309.91l3,23c-17.1-7.91-16.46,7.44-21,16l-9.1,2.76,1.08-4.77,0,0,15-25h4l7.25,5.47Z"/><path class="cls-132" d="M310.27,347.89c7.49,8.72,14.86,17.55,22.53,26.11,2.66,3,5.76,6,9.29,7.55,1.72.75,5.68-1.27,7.12-3.18.79-1-1.61-4.43-2.45-6.81a13.9,13.9,0,0,1-.42-2.84c4.25-.06,8.54-.44,12.75-.08,3.77.32,7.46,1.47,11.18,2.26-11.88,7.06-23.69,14.27-35.7,21.11a31.5,31.5,0,0,1-11.4,3.95c-.81.11-2.84-5.1-3.36-8-1.25-7-1.4-14.27-3-21.19C315.3,360.3,312.5,354.16,310.27,347.89Z"/><path class="cls-137" d="M323.49,290.34c-3,2.57-4.46,3.33-5.12,4.55a53.58,53.58,0,0,0-2.62,6.77c-1.69-3.06-3.91-6-4.72-9.25-.22-.9,4.21-2.5,5.76-4.38,2.88-3.5,8-10.22,7.37-10.81-19.32-19.17,3.2-18.28,10.83-19.32,5.43-.74,12.74,6.38,17.94,11.32,6.23,5.92,11.16,13.22,16.43,20.08.36.48-.83,3-1.8,3.43-1.81.78-5.75.62-5.77,1-.32,7-.13,14.08-.23,21.12,0,1-1.11,2-1.52,3.06-1,2.65-1.94,5.34-2.9,8a12.9,12.9,0,0,1,3.48-1.42c.8-.09,1.7.75,2.55,1.17-1.22,1.55-2.51,3-3.65,4.64-3.15,4.4-6.24,8.85-9.36,13.28,5.36,2.28,10.74,4.5,16,6.88,1.08.48,2.8,2.08,2.68,2.3a124.47,124.47,0,0,1-8,12.84c-.37.52-3.2-.76-4.89-1.2,1.53-.95,3.14-1.81,4.58-2.88a16.6,16.6,0,0,0,2.25-2.47,68.87,68.87,0,0,0-8.14-5.56c-.83-.43-2.62,1.52-4,1.64-2,.16-4.77.4-6-.72-7.88-7.24-16.84-13.93-22.51-22.7-2.91-4.5-.37-13,.8-19.53.92-5.09,4-9.77,5.13-14.85C328.45,295.78,325.68,293.52,323.49,290.34Z"/><path class="cls-138" d="M280.27,321.89l-15,25q-3-8.87-6-17.72l-12.89,7.73c-.28.17-.53.57-.8.58-11.26.34-22.54,1-33.79.77-4.77-.09-9.59-1.8-14.2-3.31-1.16-.38-1.63-2.85-2.41-4.36,2.1,0,4.35-.48,6.26.14,2.58.84,4.9,2.51,7.33,3.83-.15-4.14,1.39-9.81-.74-12.17-13-14.48-1.89-16.53,9-18.27,5.67-.9,11.58-.24,17.38-.41a3.82,3.82,0,0,0,2.22-1.06c-1.38-6.43-3.08-12.79-4.25-19.25-.16-.89,2-2.8,3.39-3.23,1.83-.56,5.23.65,5.77-.24,5.53-9.07,10.45-18.51,15.95-27.6,1.62-2.67,4.58-4.54,6.92-6.78.63,1.91.88,5.17,2,5.48,5.05,1.45,13.62.59,14.85,3.31,2.63,5.85,1.64,13.37,1.89,20.23.06,1.56-.88,3.15-1.36,4.73a33.22,33.22,0,0,0,5.05,1.45,39.24,39.24,0,0,0,5.63-.07c-.24,1.89-.58,3.77-.73,5.66-.53,6.86-1,13.72-1.51,20.58.32,1,.65,2,1,3q.12,8.73.26,17.45l-7.25-5.47c-1-1.33-2-2.75-3.09-4s-2.78-2.29-3.78-3.7c-.26-.37.83-2,1.61-2.74,1.79-1.68,5-2.89,5.42-4.78.75-3.45.87-7.68-.5-10.81-3.35-7.68-8.11-14.75-11.51-22.41-2.11-4.78-2.79-10.2-4.11-15.33-2.07,5.24-3.78,10.66-6.29,15.68-4.74,9.46-9.95,18.69-14.95,28-.47.87-.89,1.76-1.34,2.64,1.08.48,2.16.93,3.21,1.45s1.89,1.06,2.83,1.59a4.43,4.43,0,0,1-.81,1c-3.13,2-6.27,3.95-9.41,5.92,3.3.94,6.57,2.48,9.9,2.6,1.86.06,3.71-3,5.73-3.27a19.74,19.74,0,0,1,9,1.22C271.05,316.89,275.6,319.54,280.27,321.89Z"/><path class="cls-139" d="M280.27,321.89c-4.67-2.35-9.22-5-14.06-6.92a19.74,19.74,0,0,0-9-1.22c-2,.22-3.87,3.33-5.73,3.27-3.33-.12-6.6-1.66-9.9-2.6,3.14-2,6.28-3.93,9.41-5.92a4.43,4.43,0,0,0,.81-1c-.94-.53-1.86-1.1-2.83-1.59s-2.13-1-3.21-1.45c.45-.88.87-1.77,1.34-2.64,5-9.32,10.21-18.55,14.95-28,2.51-5,4.22-10.44,6.29-15.68,1.32,5.13,2,10.55,4.11,15.33,3.4,7.66,8.16,14.73,11.51,22.41,1.37,3.13,1.25,7.36.5,10.81-.42,1.89-3.63,3.1-5.42,4.78-.78.73-1.87,2.37-1.61,2.74,1,1.41,2.58,2.4,3.78,3.7s2.07,2.65,3.09,4Z"/></g></svg>