<?xml version="1.0" standalone="no"?>
<!DOCTYPE svg PUBLIC "-//W3C//DTD SVG 20010904//EN"
 "http://www.w3.org/TR/2001/REC-SVG-20010904/DTD/svg10.dtd">
<svg version="1.0" xmlns="http://www.w3.org/2000/svg"
 width="565.000000pt" height="565.000000pt" viewBox="0 0 565.000000 565.000000"
 preserveAspectRatio="xMidYMid meet">
<metadata>
Created by potrace 1.11, written by Peter Selinger 2001-2013
</metadata>
<g transform="translate(0.000000,565.000000) scale(0.100000,-0.100000)"
fill="#000000" stroke="none">
<path d="M2640 5634 c-705 -60 -1317 -339 -1796 -818 -224 -225 -389 -456
-535 -751 -379 -770 -385 -1677 -15 -2450 141 -294 303 -524 539 -764 460
-468 1039 -746 1707 -821 143 -17 474 -14 625 5 446 54 857 205 1216 444 181
120 280 201 435 356 433 430 705 969 800 1580 24 152 27 646 6 790 -35 233
-96 463 -172 654 -60 152 -140 311 -156 311 -8 0 -14 10 -14 23 0 67 -235 391
-425 586 -548 563 -1196 837 -2025 856 -80 1 -165 1 -190 -1z"/>
</g>
</svg>
